<?xml version="1.0" standalone="no"?>
<!DOCTYPE svg PUBLIC "-//W3C//DTD SVG 1.1//EN" "http://www.w3.org/Graphics/SVG/1.1/DTD/svg11.dtd">
<svg width="100%" height="100%" viewBox="0 0 1010 1010" version="1.1" xmlns="http://www.w3.org/2000/svg" xmlns:xlink="http://www.w3.org/1999/xlink" xml:space="preserve" style="fill-rule:evenodd;clip-rule:evenodd;stroke-linecap:round;stroke-linejoin:round;stroke-miterlimit:1.41421;">
    <g id="data-connection">
        <path id="label_16_" d="M505.013,0C783.914,0 1010,226.096 1010,504.994C1010,783.904 783.914,1010 505.013,1010C226.11,1010 0,783.904 0,504.994C0,226.096 226.11,0 505.013,0Z" style="fill:rgb(57,65,69);fill-rule:nonzero;"/>
        <g transform="matrix(2.0929,0,0,2.0929,-603.729,-610.122)">
            <g transform="matrix(1,0,0,1,336.684,584.536)">
                <text x="0px" y="0px" style="font-family:'ArialMT';font-size:144px;fill:rgb(235,240,240);">{</text>
            </g>
            <g transform="matrix(0.505577,0,0,0.505577,255.899,251.103)">
                <rect x="349.68" y="318.051" width="380.756" height="508.283" style="fill:none;stroke-width:17.01px;stroke:rgb(230,99,98);"/>
            </g>
            <g transform="matrix(1,0,0,1,676.817,583.813)">
                <text x="0px" y="0px" style="font-family:'ArialMT';font-size:144px;fill:rgb(235,240,240);">}</text>
            </g>
        </g>
        <g transform="matrix(1,0,0,1,2,0)">
            <path d="M383.194,338.075L619.329,338.075" style="fill:none;stroke-width:8.5px;stroke-linecap:butt;stroke:rgb(230,99,98);"/>
        </g>
        <g transform="matrix(1,0,0,1,2,50)">
            <path d="M383.194,338.075L619.329,338.075" style="fill:none;stroke-width:8.5px;stroke-linecap:butt;stroke:rgb(230,99,98);"/>
        </g>
        <g transform="matrix(1,0,0,1,2,100)">
            <path d="M383.194,338.075L619.329,338.075" style="fill:none;stroke-width:8.5px;stroke-linecap:butt;stroke:rgb(230,99,98);"/>
        </g>
        <g transform="matrix(1,0,0,1,2,150)">
            <path d="M383.194,338.075L619.329,338.075" style="fill:none;stroke-width:8.5px;stroke-linecap:butt;stroke:rgb(230,99,98);"/>
        </g>
        <g transform="matrix(1,0,0,1,2,200)">
            <path d="M383.194,338.075L619.329,338.075" style="fill:none;stroke-width:8.5px;stroke-linecap:butt;stroke:rgb(230,99,98);"/>
        </g>
        <g transform="matrix(1,0,0,1,2,250)">
            <path d="M383.194,338.075L619.329,338.075" style="fill:none;stroke-width:8.5px;stroke-linecap:butt;stroke:rgb(230,99,98);"/>
        </g>
        <g transform="matrix(1,0,0,1,2,300)">
            <path d="M383.194,338.075L619.329,338.075" style="fill:none;stroke-width:8.5px;stroke-linecap:butt;stroke:rgb(230,99,98);"/>
        </g>
        <g transform="matrix(1,0,0,1,2,350)">
            <path d="M383.194,338.075L619.329,338.075" style="fill:none;stroke-width:8.5px;stroke-linecap:butt;stroke:rgb(230,99,98);"/>
        </g>
    </g>
</svg>
