<?xml version="1.0" standalone="no"?>
<!DOCTYPE svg PUBLIC "-//W3C//DTD SVG 1.1//EN" "http://www.w3.org/Graphics/SVG/1.1/DTD/svg11.dtd">
<svg width="100%" height="100%" viewBox="0 0 137 137" version="1.1" xmlns="http://www.w3.org/2000/svg" xmlns:xlink="http://www.w3.org/1999/xlink" xml:space="preserve" style="fill-rule:evenodd;clip-rule:evenodd;stroke-linejoin:round;stroke-miterlimit:1.41421;">
    <g>
        <circle cx="68.417" cy="68.417" r="63.333" style="fill:rgb(242,241,242);"/>
        <g>
            <g>
                <path d="M86.763,102.337C83.578,108.388 78.361,115.198 71.314,114.146L73.377,114.951C80.422,116.004 86.886,109.322 90.069,103.273C90.07,103.272 86.819,102.231 86.763,102.337Z" style="fill:rgb(133,120,86);fill-rule:nonzero;"/>
                <path d="M105.728,56.012C93.736,68.56 82.326,68.377 77.686,80.279C74.212,89.186 78.62,99.223 87.527,102.697C96.435,106.17 106.472,101.764 109.946,92.856C116.35,76.431 105.728,56.012 105.728,56.012Z" style="fill:rgb(177,198,53);fill-rule:nonzero;"/>
            </g>
            <g>
                <path d="M33.353,65.415C30.61,59.151 28.542,50.825 33.76,45.974L31.844,47.085C26.625,51.935 27.828,61.386 30.57,67.648C30.57,67.647 33.402,65.523 33.353,65.415Z" style="fill:rgb(133,120,86);fill-rule:nonzero;"/>
                <path d="M57.732,109.135C55.405,91.935 62.664,83.129 56.257,72.079C51.458,63.808 40.866,60.991 32.595,65.787C24.324,70.584 21.506,81.177 26.303,89.449C35.148,104.699 57.732,109.135 57.732,109.135Z" style="fill:rgb(177,198,53);fill-rule:nonzero;"/>
            </g>
            <g>
                <path d="M86.934,38.878C93.728,39.647 101.969,42.034 103.548,48.983L103.548,46.766C101.969,39.822 93.36,35.918 86.569,35.147C86.57,35.147 86.815,38.865 86.934,38.878Z" style="fill:rgb(133,120,86);fill-rule:nonzero;"/>
                <path d="M36.884,38.036C52.931,44.651 56.905,55.348 69.679,55.348C79.242,55.347 86.992,47.597 86.992,38.035C86.992,28.473 79.242,20.722 69.679,20.723C52.049,20.723 36.884,38.036 36.884,38.036Z" style="fill:rgb(177,198,53);fill-rule:nonzero;"/>
            </g>
        </g>
    </g>
</svg>
