<?xml version="1.0" standalone="no"?>
<!DOCTYPE svg PUBLIC "-//W3C//DTD SVG 1.1//EN" "http://www.w3.org/Graphics/SVG/1.1/DTD/svg11.dtd">
<svg width="100%" height="100%" viewBox="0 0 400 350" version="1.1" xmlns="http://www.w3.org/2000/svg" xmlns:xlink="http://www.w3.org/1999/xlink" xml:space="preserve" style="fill-rule:evenodd;clip-rule:evenodd;stroke-linejoin:round;stroke-miterlimit:1.41421;">
    <g transform="matrix(0.899023,0,0,1,329.563,328.979)">
        <text x="0px" y="0px" style="font-family:'Seravek-Light';font-size:24px;fill:rgb(96,96,96);">T</text>
        <g transform="matrix(1,0,0,1,12.192,0)">
            <text x="0px" y="0px" style="font-family:'Seravek-Light';font-size:24px;fill:rgb(96,96,96);">ime</text>
        </g>
    </g>
    <g transform="matrix(0.899023,0,0,1,262.314,119.274)">
        <g transform="matrix(1,0,0,1,-186.005,59.1361)">
            <text x="0px" y="0px" style="font-family:'Seravek';font-size:24px;fill:rgb(228,85,84);">1.</text>
        </g>
        <g transform="matrix(1,0,0,1,-128.456,6.78452)">
            <text x="0px" y="0px" style="font-family:'Seravek';font-size:24px;fill:rgb(228,85,84);">2.</text>
        </g>
        <g transform="matrix(1,0,0,1,-79.2466,32.9006)">
            <text x="0px" y="0px" style="font-family:'Seravek';font-size:24px;fill:rgb(228,85,84);">3.</text>
        </g>
        <g transform="matrix(1,0,0,1,-68.6148,94.3044)">
            <text x="0px" y="0px" style="font-family:'Seravek';font-size:24px;fill:rgb(228,85,84);">4</text>
            <g transform="matrix(1,0,0,1,12.504,0)">
                <text x="0px" y="0px" style="font-family:'Seravek';font-size:24px;fill:rgb(228,85,84);">.</text>
            </g>
        </g>
        <g transform="matrix(1,0,0,1,-14.9308,123.107)">
            <text x="0px" y="0px" style="font-family:'Seravek';font-size:24px;fill:rgb(228,85,84);">5</text>
            <g transform="matrix(1,0,0,1,12.504,0)">
                <text x="0px" y="0px" style="font-family:'Seravek';font-size:24px;fill:rgb(228,85,84);">.</text>
            </g>
        </g>
        <g transform="matrix(1,0,0,1,47.359,77.1073)">
            <text x="0px" y="0px" style="font-family:'Seravek';font-size:24px;fill:rgb(228,85,84);">6</text>
            <g transform="matrix(1,0,0,1,12.504,0)">
                <text x="0px" y="0px" style="font-family:'Seravek';font-size:24px;fill:rgb(228,85,84);">.</text>
            </g>
        </g>
        <g transform="matrix(1,0,0,1,81.8044,3.95967)">
            <text x="0px" y="0px" style="font-family:'Seravek';font-size:24px;fill:rgb(107,164,96);">T</text>
            <g transform="matrix(1,0,0,1,10.752,0)">
                <text x="0px" y="0px" style="font-family:'Seravek';font-size:24px;fill:rgb(107,164,96);">rend</text>
            </g>
        </g>
        <g transform="matrix(0.957275,-1.08983,-1.21224,-0.860613,83.1657,466.494)">
            <path d="M98.396,293.696C98.396,293.696 156.43,323.738 172.274,307.218C194.444,284.103 154.847,240.229 166.335,219.31C189.717,176.733 250.034,223.527 250.034,223.527" style="fill:none;stroke-width:2.37px;stroke:rgb(228,85,84);"/>
        </g>
        <g transform="matrix(1.57422,-0.387978,0.431556,1.41526,-323.679,-157.307)">
            <path d="M26.431,184.824L223.304,184.824" style="fill:none;stroke-width:2.04px;stroke:rgb(107,164,96);"/>
        </g>
    </g>
    <g transform="matrix(1,0,0,1.0007,7.09569,-20.1274)">
        <path d="M62.078,68.166L62.078,320.826" style="fill:black;stroke-width:6.05px;stroke:rgb(84,103,123);"/>
    </g>
    <g transform="matrix(1.00288,0,0,1,2.0487,-40.593)">
        <path d="M63.922,338.529L326.513,338.529" style="fill:none;stroke-width:6.01px;stroke:rgb(84,103,123);"/>
    </g>
    <g transform="matrix(0.899023,0,0,1,0.59816,35.567)">
        <text x="0px" y="0px" style="font-family:'Seravek-Light';font-size:27.976px;fill:rgb(96,96,96);">Output</text>
    </g>
</svg>
