<?xml version="1.0" standalone="no"?>
<!DOCTYPE svg PUBLIC "-//W3C//DTD SVG 1.1//EN" "http://www.w3.org/Graphics/SVG/1.1/DTD/svg11.dtd">
<svg width="100%" height="100%" viewBox="0 0 500 350" version="1.1" xmlns="http://www.w3.org/2000/svg" xmlns:xlink="http://www.w3.org/1999/xlink" xml:space="preserve" style="fill-rule:evenodd;clip-rule:evenodd;stroke-linejoin:round;stroke-miterlimit:1.41421;">
    <g transform="matrix(0.899023,0,0,1,0.59816,34.567)">
        <text x="0px" y="0px" style="font-family:'Seravek-Light';font-size:27.976px;fill:rgb(96,96,96);">Price of £</text>
    </g>
    <g transform="matrix(0.899023,0,0,1,363.683,331.846)">
        <g transform="matrix(1,0,0,1,11.1232,0)">
            <text x="0px" y="0px" style="font-family:'Seravek-Light';font-size:24px;fill:rgb(96,96,96);">Quan</text>
        </g>
        <g transform="matrix(1,0,0,1,-172.409,0)">
            <text x="0px" y="0px" style="font-family:'Seravek-Light';font-size:24px;fill:rgb(96,96,96);">Q1</text>
        </g>
        <g transform="matrix(1,0,0,1,-121.243,0)">
            <text x="0px" y="0px" style="font-family:'Seravek-Light';font-size:24px;fill:rgb(96,96,96);">Q2</text>
        </g>
        <g transform="matrix(1,0,0,1,67.0912,0)">
            <text x="0px" y="0px" style="font-family:'Seravek-Light';font-size:24px;fill:rgb(96,96,96);">tity of £</text>
        </g>
        <g transform="matrix(1,0,0,1,-33.78,-235.572)">
            <text x="0px" y="0px" style="font-family:'Seravek';font-size:24px;fill:rgb(228,85,84);">S£</text>
        </g>
        <g transform="matrix(7.06531,0,0,6.35189,-1938.21,-1589.21)">
            <path d="M251.87,229.5L251.87,244.925" style="fill:none;stroke-width:0.31px;stroke-dasharray:0.31,0.31;stroke:rgb(96,96,96);"/>
        </g>
        <g transform="matrix(10.7634,0,0,9.67658,-2819.69,-2401.22)">
            <path d="M251.87,229.5L251.87,244.925" style="fill:none;stroke-width:0.21px;stroke-dasharray:0.21,0.21;stroke:rgb(96,96,96);"/>
        </g>
        <g transform="matrix(-1.3901e-15,-7.77133,8.64419,-1.24974e-15,-2276.17,1823.59)">
            <path d="M251.87,229.5C251.87,234.642 251.87,239.783 251.87,244.925" style="fill:none;stroke-width:0.26px;stroke-dasharray:0.26,0.26;stroke:rgb(96,96,96);"/>
        </g>
        <g transform="matrix(-1.88348e-15,-10.5295,11.7122,-1.6933e-15,-2975.12,2473.39)">
            <path d="M251.87,229.5C251.87,234.642 251.87,239.783 251.87,244.925" style="fill:none;stroke-width:0.19px;stroke-dasharray:0.19,0.19;stroke:rgb(96,96,96);"/>
        </g>
        <g transform="matrix(1.11232,0,0,1,-340.223,-385.249)">
            <path d="M103.708,310.992L266.064,148.636" style="fill:none;stroke-width:4px;stroke:rgb(228,85,84);"/>
        </g>
        <g transform="matrix(1,0,0,1,-324.809,-128.206)">
            <text x="0px" y="0px" style="font-family:'Seravek-Light';font-size:24px;fill:rgb(96,96,96);">P1</text>
        </g>
        <g transform="matrix(1,0,0,1,-324.809,-174.206)">
            <text x="0px" y="0px" style="font-family:'Seravek-Light';font-size:24px;fill:rgb(96,96,96);">P2</text>
        </g>
    </g>
    <g transform="matrix(0.899023,0,0,1,312.314,119.274)">
        <g transform="matrix(1,0,0,1,25.2039,110.24)">
            <g>
                <text x="0px" y="0px" style="font-family:'Seravek';font-size:24px;fill:rgb(228,85,84);">D£</text>
                <path d="M30.6,-15.528C31.016,-15.752 31.452,-15.924 31.908,-16.044C32.364,-16.164 32.856,-16.224 33.384,-16.224C34.44,-16.224 35.264,-15.956 35.856,-15.42C36.448,-14.884 36.744,-14.184 36.744,-13.32C36.744,-12.872 36.668,-12.456 36.516,-12.072C36.364,-11.688 36.164,-11.328 35.916,-10.992C35.668,-10.656 35.376,-10.336 35.04,-10.032C34.704,-9.728 34.352,-9.432 33.984,-9.144C33.712,-8.92 33.456,-8.72 33.216,-8.544C32.976,-8.368 32.744,-8.192 32.52,-8.016L37.056,-8.016L37.056,-6.528L30.312,-6.528L29.952,-7.728C30.464,-8.144 30.948,-8.54 31.404,-8.916C31.86,-9.292 32.328,-9.688 32.808,-10.104C33.352,-10.568 33.832,-11.044 34.248,-11.532C34.664,-12.02 34.872,-12.576 34.872,-13.2C34.872,-13.696 34.724,-14.076 34.428,-14.34C34.132,-14.604 33.704,-14.736 33.144,-14.736C32.76,-14.736 32.4,-14.68 32.064,-14.568C31.728,-14.456 31.384,-14.312 31.032,-14.136L30.6,-15.528Z" style="fill:rgb(228,85,84);"/>
            </g>
        </g>
        <g transform="matrix(1,0,0,1,-16.9918,149.37)">
            <g>
                <text x="0px" y="0px" style="font-family:'Seravek';font-size:24px;fill:rgb(228,85,84);">D£</text>
                <path d="M32.496,-6.528L32.496,-14.112L30.072,-13.32L29.64,-14.784L33.072,-15.984L34.368,-15.984L34.368,-6.528L32.496,-6.528Z" style="fill:rgb(228,85,84);"/>
            </g>
        </g>
    </g>
    <g transform="matrix(-1.60812e-16,-1,1,-1.60812e-16,-21.3448,370.399)">
        <path d="M103.708,310.992L250.763,163.937" style="fill:none;stroke-width:4px;stroke:rgb(228,85,84);"/>
    </g>
    <g transform="matrix(1.00246,0,0,1,36.1857,-40.593)">
        <path d="M63.922,338.529L326.513,338.529" style="fill:none;stroke-width:6px;stroke:rgb(84,103,123);"/>
    </g>
    <g transform="matrix(1,0,0,1,41.0957,-20.0797)">
        <path d="M62.078,68.166L62.078,320.826" style="fill:black;stroke-width:6px;stroke:rgb(84,103,123);"/>
    </g>
    <g transform="matrix(-1.60812e-16,-1,1,-1.60812e-16,19.9417,321.852)">
        <path d="M103.708,310.992L250.763,163.937" style="fill:none;stroke-width:4px;stroke:rgb(228,85,84);"/>
    </g>
</svg>
