<?xml version="1.0" standalone="no"?>
<!DOCTYPE svg PUBLIC "-//W3C//DTD SVG 1.1//EN" "http://www.w3.org/Graphics/SVG/1.1/DTD/svg11.dtd">
<svg width="100%" height="100%" viewBox="0 0 400 350" version="1.1" xmlns="http://www.w3.org/2000/svg" xmlns:xlink="http://www.w3.org/1999/xlink" xml:space="preserve" style="fill-rule:evenodd;clip-rule:evenodd;stroke-linejoin:round;stroke-miterlimit:1.41421;">
    <g transform="matrix(0.899023,0,0,1,307.563,328.979)">
        <text x="0px" y="0px" style="font-family:'Seravek-Light';font-size:24px;fill:rgb(96,96,96);">Quan</text>
        <g transform="matrix(1,0,0,1,55.968,0)">
            <text x="0px" y="0px" style="font-family:'Seravek-Light';font-size:24px;fill:rgb(96,96,96);">tity</text>
        </g>
        <g transform="matrix(7.93407,0,0,8.72661,-2144.75,-2169.82)">
            <path d="M251.87,229.5L251.87,244.925" style="fill:none;stroke-width:0.25px;stroke-dasharray:0.25,0.25;stroke:rgb(96,96,96);"/>
        </g>
        <g transform="matrix(7.93407,0,0,6.15251,-2099.7,-1538.39)">
            <path d="M251.87,229.5L251.87,244.925" style="fill:none;stroke-width:0.3px;stroke-dasharray:0.3,0.3;stroke:rgb(96,96,96);"/>
        </g>
        <g transform="matrix(10.3559,0,0,11.3904,-2797.81,-2820.1)">
            <path d="M251.87,229.5L251.87,244.925" style="fill:none;stroke-width:0.19px;stroke-dasharray:0.19,0.19;stroke:rgb(96,96,96);"/>
        </g>
    </g>
    <g transform="matrix(0.899023,0,0,1,262.314,119.274)">
        <g transform="matrix(-1.40105e-15,-7.83256,8.7123,-1.25958e-15,-2228.27,2013.44)">
            <path d="M251.87,229.5C251.87,234.642 251.87,239.783 251.87,244.925" style="fill:none;stroke-width:0.26px;stroke-dasharray:0.26,0.26;stroke:rgb(96,96,96);"/>
        </g>
        <g transform="matrix(-1.84638e-15,-10.3222,11.4815,-1.65994e-15,-2863.76,2680.99)">
            <path d="M251.87,229.5C251.87,234.642 251.87,239.783 251.87,244.925" style="fill:none;stroke-width:0.19px;stroke-dasharray:0.19,0.19;stroke:rgb(96,96,96);"/>
        </g>
        <g transform="matrix(-9.42742e-16,-5.27039,5.86235,-8.47548e-16,-1574.21,1329.42)">
            <path d="M251.87,229.5C251.87,234.642 251.87,239.783 251.87,244.925" style="fill:none;stroke-width:0.38px;stroke-dasharray:0.38,0.38;stroke:rgb(96,96,96);"/>
        </g>
        <g transform="matrix(1,0,0,1,-59.534,-63.3466)">
            <g>
                <text x="0px" y="0px" style="font-family:'Seravek';font-size:24px;fill:rgb(228,85,84);">S</text>
                <path d="M15.24,-6.528L15.24,-14.112L12.816,-13.32L12.384,-14.784L15.816,-15.984L17.112,-15.984L17.112,-6.528L15.24,-6.528Z" style="fill:rgb(228,85,84);"/>
            </g>
        </g>
        <g transform="matrix(1,0,0,1,-13.9289,-23.3466)">
            <text x="0px" y="0px" style="font-family:'Seravek';font-size:24px;fill:rgb(228,85,84);">S</text>
        </g>
        <g transform="matrix(1,0,0,1,36.1254,12.6534)">
            <g>
                <text x="0px" y="0px" style="font-family:'Seravek';font-size:24px;fill:rgb(228,85,84);">S</text>
                <path d="M13.344,-15.528C13.76,-15.752 14.196,-15.924 14.652,-16.044C15.108,-16.164 15.6,-16.224 16.128,-16.224C17.184,-16.224 18.008,-15.956 18.6,-15.42C19.192,-14.884 19.488,-14.184 19.488,-13.32C19.488,-12.872 19.412,-12.456 19.26,-12.072C19.108,-11.688 18.908,-11.328 18.66,-10.992C18.412,-10.656 18.12,-10.336 17.784,-10.032C17.448,-9.728 17.096,-9.432 16.728,-9.144C16.456,-8.92 16.2,-8.72 15.96,-8.544C15.72,-8.368 15.488,-8.192 15.264,-8.016L19.8,-8.016L19.8,-6.528L13.056,-6.528L12.696,-7.728C13.208,-8.144 13.692,-8.54 14.148,-8.916C14.604,-9.292 15.072,-9.688 15.552,-10.104C16.096,-10.568 16.576,-11.044 16.992,-11.532C17.408,-12.02 17.616,-12.576 17.616,-13.2C17.616,-13.696 17.468,-14.076 17.172,-14.34C16.876,-14.604 16.448,-14.736 15.888,-14.736C15.504,-14.736 15.144,-14.68 14.808,-14.568C14.472,-14.456 14.128,-14.312 13.776,-14.136L13.344,-15.528Z" style="fill:rgb(228,85,84);"/>
            </g>
        </g>
        <g transform="matrix(1,0,0,1,1.25034,124.446)">
            <text x="0px" y="0px" style="font-family:'Seravek';font-size:24px;fill:rgb(228,85,84);">D</text>
        </g>
        <g transform="matrix(-1.97867e-16,-1.10618,1.23043,-1.77887e-16,-387.611,237.276)">
            <path d="M103.708,310.992L250.763,163.937" style="fill:none;stroke-width:3.62px;stroke:rgb(228,85,84);"/>
        </g>
        <g transform="matrix(1,0,0,1,-158.651,211.572)">
            <text x="0px" y="0px" style="font-family:'Seravek-Light';font-size:24px;fill:rgb(96,96,96);">Q1</text>
        </g>
        <g transform="matrix(1,0,0,1,-105.26,211.572)">
            <text x="0px" y="0px" style="font-family:'Seravek-Light';font-size:24px;fill:rgb(96,96,96);">Q</text>
        </g>
        <g transform="matrix(1,0,0,1,-61.88,211.572)">
            <text x="0px" y="0px" style="font-family:'Seravek-Light';font-size:24px;fill:rgb(96,96,96);">Q2</text>
        </g>
        <g transform="matrix(1,0,0,1,-269.883,8.572)">
            <text x="0px" y="0px" style="font-family:'Seravek-Light';font-size:24px;fill:rgb(96,96,96);">P1</text>
        </g>
        <g transform="matrix(1,0,0,1,-269.883,103.572)">
            <text x="0px" y="0px" style="font-family:'Seravek-Light';font-size:24px;fill:rgb(96,96,96);">P2</text>
        </g>
        <g transform="matrix(1,0,0,1,-269.883,63.572)">
            <text x="0px" y="0px" style="font-family:'Seravek-Light';font-size:24px;fill:rgb(96,96,96);">P</text>
        </g>
    </g>
    <g transform="matrix(1,0,0,1.0007,-8.90431,-20.1274)">
        <path d="M62.078,68.166L62.078,320.826" style="fill:black;stroke-width:6.05px;stroke:rgb(84,103,123);"/>
    </g>
    <g transform="matrix(1.00288,0,0,1,-13.9513,-40.593)">
        <path d="M63.922,338.529L326.513,338.529" style="fill:none;stroke-width:6.01px;stroke:rgb(84,103,123);"/>
    </g>
    <g transform="matrix(1,0,0,1,-62.2061,-93.9626)">
        <path d="M134.855,279.845L266.064,148.636" style="fill:none;stroke-width:4px;stroke:rgb(228,85,84);"/>
    </g>
    <g transform="matrix(1,0,0,1,21.2049,-19.0487)">
        <path d="M134.855,279.845L266.064,148.636" style="fill:none;stroke-width:4px;stroke:rgb(228,85,84);"/>
    </g>
    <g transform="matrix(1,0,0,1,-23.7951,-55.0487)">
        <path d="M134.855,279.845L266.064,148.636" style="fill:none;stroke-width:4px;stroke:rgb(228,85,84);"/>
    </g>
    <g transform="matrix(0.899023,0,0,1,0.59816,35.567)">
        <text x="0px" y="0px" style="font-family:'Seravek-Light';font-size:27.976px;fill:rgb(96,96,96);">Price</text>
    </g>
</svg>
