<?xml version="1.0" standalone="no"?>
<!DOCTYPE svg PUBLIC "-//W3C//DTD SVG 1.1//EN" "http://www.w3.org/Graphics/SVG/1.1/DTD/svg11.dtd">
<svg width="100%" height="100%" viewBox="0 0 450 350" version="1.1" xmlns="http://www.w3.org/2000/svg" xmlns:xlink="http://www.w3.org/1999/xlink" xml:space="preserve" style="fill-rule:evenodd;clip-rule:evenodd;stroke-linecap:round;stroke-linejoin:round;stroke-miterlimit:1.41421;">
    <g transform="matrix(0.899023,0,0,1,338.683,331.846)">
        <g transform="matrix(1,0,0,1,18.9094,-3)">
            <text x="0px" y="0px" style="font-family:'Seravek-Light';font-size:24px;fill:rgb(96,96,96);">Output</text>
        </g>
        <g transform="matrix(1,0,0,1,-340.369,-99)">
            <text x="0px" y="0px" style="font-family:'Seravek-Light';font-size:24px;fill:rgb(96,96,96);">C<tspan x="14.04px 26.952px " y="0px 0px ">os</tspan>t</text>
        </g>
        <g transform="matrix(1,0,0,1,-340.369,-169)">
            <text x="0px" y="0px" style="font-family:'Seravek-Light';font-size:24px;fill:rgb(228,87,84);">Price</text>
        </g>
        <g transform="matrix(1,0,0,1,-375.248,-311.139)">
            <text x="0px" y="0px" style="font-family:'Seravek-Light';font-size:24px;fill:rgb(96,96,96);">C</text>
            <g transform="matrix(1,0,0,1,0,25)">
                <text x="0px" y="0px" style="font-family:'Seravek-Light';font-size:24px;fill:rgb(96,96,96);">Revenue</text>
            </g>
            <g transform="matrix(1,0,0,1,14.04,0)">
                <text x="0px" y="0px" style="font-family:'Seravek-Light';font-size:24px;fill:rgb(96,96,96);">ost &amp;</text>
            </g>
        </g>
    </g>
    <g transform="matrix(0.899023,0,0,1,323.886,156.143)">
        <g transform="matrix(1,0,0,1,24.471,-4)">
            <text x="0px" y="0px" style="font-family:'Seravek';font-size:24px;fill:rgb(132,132,132);">A</text>
        </g>
        <g transform="matrix(1,0,0,1,39.063,-4)">
            <text x="0px" y="0px" style="font-family:'Seravek';font-size:24px;fill:rgb(132,132,132);">T<tspan x="12.192px " y="0px ">C</tspan></text>
        </g>
    </g>
    <g transform="matrix(1.23651,0,0,1.23651,-90.525,-130.089)">
        <clipPath id="_clip1">
            <rect x="166.584" y="153.593" width="191.242" height="82.691"/>
        </clipPath>
        <g clip-path="url(#_clip1)">
            <circle cx="259.697" cy="143.038" r="87.527" style="fill:none;stroke-width:3.23px;stroke:rgb(228,87,84);"/>
        </g>
    </g>
    <g transform="matrix(0.899023,0,0,1,323.886,86.1427)">
        <g transform="matrix(1,0,0,1,23.3587,-14)">
            <text x="0px" y="0px" style="font-family:'Seravek';font-size:24px;fill:rgb(228,87,84);">A</text>
        </g>
        <g transform="matrix(1,0,0,1,38.0227,-14)">
            <text x="0px" y="0px" style="font-family:'Seravek';font-size:24px;fill:rgb(228,87,84);">T<tspan x="12.192px 26.832px " y="0px 0px ">C </tspan>+ 25%</text>
        </g>
    </g>
    <g transform="matrix(1.1879,0,0,2.51458,-29.1842,-238.194)">
        <path d="M217.523,212.976L217.523,156.915" style="fill:none;stroke-width:1.02px;stroke-linecap:butt;stroke-dasharray:1.02,1.02;stroke:rgb(228,87,84);"/>
    </g>
    <g transform="matrix(-1.48909e-15,-9.25979,9.25979,-1.48909e-15,-2037.02,2558.8)">
        <path d="M251.87,229.5C251.87,234.642 251.87,239.783 251.87,244.925" style="fill:none;stroke-width:0.22px;stroke-linecap:butt;stroke-dasharray:0.22,0.22;stroke:rgb(96,96,96);"/>
    </g>
    <g transform="matrix(-1.48909e-15,-9.25979,9.14403,-1.47047e-15,-2009.46,2488.8)">
        <path d="M251.87,229.5C251.87,234.642 251.87,239.783 251.87,244.925" style="fill:none;stroke-width:0.22px;stroke-linecap:butt;stroke-dasharray:0.22,0.22;stroke:rgb(228,87,84);"/>
    </g>
    <g transform="matrix(1,0,0,1,28.0957,-18.0797)">
        <path d="M62.078,68.166L62.078,320.826" style="fill:black;stroke-width:6px;stroke-linecap:butt;stroke:rgb(84,103,123);"/>
    </g>
    <g transform="matrix(1.23651,0,0,1.23651,-90.525,-60.0887)">
        <clipPath id="_clip2">
            <rect x="165.185" y="157.943" width="193.512" height="78.395"/>
        </clipPath>
        <g clip-path="url(#_clip2)">
            <circle cx="259.697" cy="143.038" r="87.527" style="fill:none;stroke-width:3.23px;stroke:rgb(128,126,126);"/>
        </g>
    </g>
    <g transform="matrix(1.00246,0,0,1,23.1857,-38.593)">
        <path d="M63.922,338.529L326.513,338.529" style="fill:none;stroke-width:6px;stroke-linecap:butt;stroke:rgb(84,103,123);"/>
    </g>
</svg>
