<?xml version="1.0" encoding="UTF-8" standalone="no"?>
<!DOCTYPE svg PUBLIC "-//W3C//DTD SVG 1.1//EN" "http://www.w3.org/Graphics/SVG/1.1/DTD/svg11.dtd">
<svg width="100%" height="100%" viewBox="0 0 400 350" version="1.1" xmlns="http://www.w3.org/2000/svg" xmlns:xlink="http://www.w3.org/1999/xlink" xml:space="preserve" style="fill-rule:evenodd;clip-rule:evenodd;stroke-linejoin:round;stroke-miterlimit:1.41421;">
    <g transform="matrix(9.59267,0,0,13.9562,-2320.25,-3120.77)">
        <path d="M251.87,229.5L251.87,244.925" style="fill:none;stroke:rgb(96,96,96);stroke-width:0.17px;stroke-dasharray:0.17,0.17;"/>
    </g>
    <g transform="matrix(9.59267,0,0,11.4287,-2278.25,-2501.73)">
        <path d="M251.87,229.5L251.87,244.925" style="fill:none;stroke:rgb(96,96,96);stroke-width:0.19px;stroke-dasharray:0.19,0.19;"/>
    </g>
    <g transform="matrix(9.59267,0,0,9.01306,-2238.25,-1910.07)">
        <path d="M251.87,229.5L251.87,244.925" style="fill:none;stroke:rgb(96,96,96);stroke-width:0.21px;stroke-dasharray:0.21,0.21;"/>
    </g>
    <g transform="matrix(9.59267,0,0,6.61144,-2198.25,-1321.86)">
        <path d="M251.87,229.5L251.87,244.925" style="fill:none;stroke:rgb(96,96,96);stroke-width:0.24px;stroke-dasharray:0.24,0.24;"/>
    </g>
    <g transform="matrix(9.59267,0,0,4.27339,-2162.25,-749.209)">
        <path d="M251.87,229.5L251.87,244.925" style="fill:none;stroke:rgb(96,96,96);stroke-width:0.27px;stroke-dasharray:0.27,0.27;"/>
    </g>
    <g transform="matrix(-1.46901e-15,-9.13488,2.83854,-4.56478e-16,-597.98,2382.96)">
        <path d="M251.87,229.5C251.87,234.642 251.87,239.783 251.87,244.925" style="fill:none;stroke:rgb(96,96,96);stroke-width:0.29px;stroke-dasharray:0.29,0.29;"/>
    </g>
    <g transform="matrix(-1.46901e-15,-9.13488,5.43578,-8.74152e-16,-1194.05,2422.96)">
        <path d="M251.87,229.5C251.87,234.642 251.87,239.783 251.87,244.925" style="fill:none;stroke:rgb(96,96,96);stroke-width:0.27px;stroke-dasharray:0.27,0.27;"/>
    </g>
    <g transform="matrix(-1.46901e-15,-9.13488,8.05721,-1.29572e-15,-1795.67,2460.96)">
        <path d="M251.87,229.5C251.87,234.642 251.87,239.783 251.87,244.925" style="fill:none;stroke:rgb(96,96,96);stroke-width:0.23px;stroke-dasharray:0.23,0.23;"/>
    </g>
    <g transform="matrix(-1.46901e-15,-9.13488,10.6453,-1.71192e-15,-2389.64,2497.96)">
        <path d="M251.87,229.5C251.87,234.642 251.87,239.783 251.87,244.925" style="fill:none;stroke:rgb(96,96,96);stroke-width:0.2px;stroke-dasharray:0.2,0.2;"/>
    </g>
    <g transform="matrix(-1.46901e-15,-9.13488,13.1517,-2.11498e-15,-2964.84,2533.96)">
        <path d="M251.87,229.5C251.87,234.642 251.87,239.783 251.87,244.925" style="fill:none;stroke:rgb(96,96,96);stroke-width:0.18px;stroke-dasharray:0.18,0.18;"/>
    </g>
    <g transform="matrix(1,0,0,1,-5.90431,-20.0797)">
        <path d="M62.078,68.166L62.078,320.826" style="stroke:rgb(84,103,123);stroke-width:6px;"/>
    </g>
    <g transform="matrix(1.00246,0,0,1,-10.8143,-40.593)">
        <path d="M63.922,338.529L326.513,338.529" style="fill:none;stroke:rgb(84,103,123);stroke-width:6px;"/>
    </g>
    <g transform="matrix(-1.98442e-16,-1.234,1.29956,-2.08985e-16,-113.26,395.159)">
        <path d="M103.708,310.992L266.064,148.636" style="fill:none;stroke:rgb(228,85,84);stroke-width:3.16px;"/>
    </g>
    <g transform="matrix(0.899023,0,0,1,2.59816,35.567)">
        <text x="0px" y="0px" style="font-family:'Seravek-Light', 'Seravek', sans-serif;font-weight:300;font-size:27.976px;fill:rgb(96,96,96);">Price</text>
    </g>
    <g transform="matrix(0.899023,0,0,1,12.3204,90.3811)">
        <text x="0px" y="0px" style="font-family:'Seravek-Light', 'Seravek', sans-serif;font-weight:300;font-size:18px;fill:rgb(96,96,96);">1500</text>
    </g>
    <g transform="matrix(0.899023,0,0,1,12.1681,128.147)">
        <text x="0px" y="0px" style="font-family:'Seravek-Light', 'Seravek', sans-serif;font-weight:300;font-size:18px;fill:rgb(96,96,96);">1200</text>
    </g>
    <g transform="matrix(0.899023,0,0,1,12.0763,166.371)">
        <text x="0px" y="0px" style="font-family:'Seravek-Light', 'Seravek', sans-serif;font-weight:300;font-size:18px;fill:rgb(96,96,96);">1000</text>
    </g>
    <g transform="matrix(0.899023,0,0,1,17.8986,204.588)">
        <text x="0px" y="0px" style="font-family:'Seravek-Light', 'Seravek', sans-serif;font-weight:300;font-size:18px;fill:rgb(96,96,96);">750</text>
    </g>
    <g transform="matrix(0.899023,0,0,1,17.8986,240.588)">
        <text x="0px" y="0px" style="font-family:'Seravek-Light', 'Seravek', sans-serif;font-weight:300;font-size:18px;fill:rgb(96,96,96);">500</text>
    </g>
    <g transform="matrix(0.899023,0,0,1,81.8986,319.588)">
        <text x="0px" y="0px" style="font-family:'Seravek-Light', 'Seravek', sans-serif;font-weight:300;font-size:18px;fill:rgb(96,96,96);">400</text>
    </g>
    <g transform="matrix(0.899023,0,0,1,124.899,319.588)">
        <text x="0px" y="0px" style="font-family:'Seravek-Light', 'Seravek', sans-serif;font-weight:300;font-size:18px;fill:rgb(96,96,96);">500</text>
    </g>
    <g transform="matrix(0.899023,0,0,1,164.899,319.588)">
        <text x="0px" y="0px" style="font-family:'Seravek-Light', 'Seravek', sans-serif;font-weight:300;font-size:18px;fill:rgb(96,96,96);">600</text>
    </g>
    <g transform="matrix(0.899023,0,0,1,204.899,319.588)">
        <text x="0px" y="0px" style="font-family:'Seravek-Light', 'Seravek', sans-serif;font-weight:300;font-size:18px;fill:rgb(96,96,96);">7<tspan x="7.506px 18.018px " y="0px 0px ">00</tspan></text>
    </g>
    <g transform="matrix(0.899023,0,0,1,239.899,319.588)">
        <text x="0px" y="0px" style="font-family:'Seravek-Light', 'Seravek', sans-serif;font-weight:300;font-size:18px;fill:rgb(96,96,96);">800</text>
    </g>
    <g transform="matrix(0.899023,0,0,1,313.683,331.846)">
        <g transform="matrix(1,0,0,1,3.33696,0)">
            <text x="0px" y="0px" style="font-family:'Seravek-Light', 'Seravek', sans-serif;font-weight:300;font-size:24px;fill:rgb(96,96,96);">Quan</text>
        </g>
        <g transform="matrix(1,0,0,1,59.305,0)">
            <text x="0px" y="0px" style="font-family:'Seravek-Light', 'Seravek', sans-serif;font-weight:300;font-size:24px;fill:rgb(96,96,96);">tity</text>
        </g>
    </g>
    <g transform="matrix(0.899023,0,0,1,263.814,248.238)">
        <g transform="matrix(1,0,0,1,38.6379,9.78906)">
            <text x="0px" y="0px" style="font-family:'Seravek', sans-serif;font-size:24px;fill:rgb(228,85,84);">D</text>
        </g>
        <g transform="matrix(1,0,0,1,38.6379,9.78906)">
            <path d="M19.608,-6.528L19.608,-14.112L17.184,-13.32L16.752,-14.784L20.184,-15.984L21.48,-15.984L21.48,-6.528L19.608,-6.528Z" style="fill:rgb(228,85,84);"/>
        </g>
    </g>
</svg>
