<?xml version="1.0" standalone="no"?>
<!DOCTYPE svg PUBLIC "-//W3C//DTD SVG 1.1//EN" "http://www.w3.org/Graphics/SVG/1.1/DTD/svg11.dtd">
<svg width="100%" height="100%" viewBox="0 0 400 350" version="1.1" xmlns="http://www.w3.org/2000/svg" xmlns:xlink="http://www.w3.org/1999/xlink" xml:space="preserve" style="fill-rule:evenodd;clip-rule:evenodd;stroke-linejoin:round;stroke-miterlimit:1.41421;">
    <g transform="matrix(1,0,0,1,-8.90431,-20.0797)">
        <path d="M62.078,68.166L62.078,320.826" style="fill:black;stroke-width:6px;stroke:rgb(84,103,123);"/>
    </g>
    <g transform="matrix(1.00246,0,0,1,-13.8143,-40.593)">
        <path d="M63.922,338.529L326.513,338.529" style="fill:none;stroke-width:6px;stroke:rgb(84,103,123);"/>
    </g>
    <g transform="matrix(-1.60812e-16,-1,1,-1.60812e-16,-86.3448,387.399)">
        <path d="M103.708,310.992L250.763,163.937" style="fill:none;stroke-width:4px;stroke:rgb(228,85,84);"/>
    </g>
    <g transform="matrix(-1.60812e-16,-1,1,-1.60812e-16,-55.0583,348.852)">
        <path d="M103.708,310.992L250.763,163.937" style="fill:none;stroke-width:4px;stroke:rgb(228,85,84);"/>
    </g>
    <g transform="matrix(-1.60812e-16,-1,1,-1.60812e-16,-18.9099,317.594)">
        <path d="M103.708,310.992L250.763,163.937" style="fill:none;stroke-width:4px;stroke:rgb(228,85,84);"/>
    </g>
    <g transform="matrix(0.899023,0,0,1,2.59816,35.567)">
        <text x="0px" y="0px" style="font-family:'Seravek-Light';font-size:27.976px;fill:rgb(96,96,96);">Price</text>
    </g>
    <g transform="matrix(0.899023,0,0,1,313.683,331.846)">
        <text x="0px" y="0px" style="font-family:'Seravek-Light';font-size:24px;fill:rgb(96,96,96);">Quan</text>
        <g transform="matrix(1,0,0,1,55.968,0)">
            <text x="0px" y="0px" style="font-family:'Seravek-Light';font-size:24px;fill:rgb(96,96,96);">tity</text>
        </g>
    </g>
    <g transform="matrix(0.899023,0,0,1,262.314,119.274)">
        <g transform="matrix(1,0,0,1,0.732856,128.24)">
            <text x="0px" y="0px" style="font-family:'Seravek';font-size:24px;fill:rgb(228,85,84);">D</text>
            <path d="M19.608,-6.528L19.608,-14.112L17.184,-13.32L16.752,-14.784L20.184,-15.984L21.48,-15.984L21.48,-6.528L19.608,-6.528Z" style="fill:rgb(228,85,84);"/>
        </g>
        <g transform="matrix(1,0,0,1,-34.7889,166.37)">
            <text x="0px" y="0px" style="font-family:'Seravek';font-size:24px;fill:rgb(228,85,84);">D</text>
            <path d="M23.784,-9.072C23.784,-8.24 23.44,-7.568 22.752,-7.056C22.064,-6.544 21.16,-6.288 20.04,-6.288C19.576,-6.288 19.096,-6.344 18.6,-6.456C18.104,-6.568 17.688,-6.712 17.352,-6.888L17.664,-8.256C18.016,-8.096 18.372,-7.972 18.732,-7.884C19.092,-7.796 19.472,-7.752 19.872,-7.752C20.512,-7.752 21.012,-7.868 21.372,-8.1C21.732,-8.332 21.912,-8.672 21.912,-9.12C21.912,-9.632 21.688,-10.004 21.24,-10.236C20.792,-10.468 20.232,-10.584 19.56,-10.584L18.408,-10.584L18.408,-12.072L19.44,-12.072C20.16,-12.072 20.716,-12.212 21.108,-12.492C21.5,-12.772 21.696,-13.128 21.696,-13.56C21.696,-13.976 21.54,-14.28 21.228,-14.472C20.916,-14.664 20.512,-14.76 20.016,-14.76C19.648,-14.76 19.296,-14.72 18.96,-14.64C18.624,-14.56 18.288,-14.44 17.952,-14.28L17.616,-15.648C18.032,-15.856 18.464,-16.004 18.912,-16.092C19.36,-16.18 19.84,-16.224 20.352,-16.224C20.8,-16.224 21.216,-16.168 21.6,-16.056C21.984,-15.944 22.32,-15.788 22.608,-15.588C22.896,-15.388 23.124,-15.14 23.292,-14.844C23.46,-14.548 23.544,-14.208 23.544,-13.824C23.544,-12.704 22.912,-11.904 21.648,-11.424C22.272,-11.264 22.784,-10.976 23.184,-10.56C23.584,-10.144 23.784,-9.648 23.784,-9.072Z" style="fill:rgb(228,85,84);"/>
        </g>
        <g transform="matrix(1,0,0,1,39.2932,94.0443)">
            <text x="0px" y="0px" style="font-family:'Seravek';font-size:24px;fill:rgb(228,85,84);">D</text>
            <path d="M17.712,-15.528C18.128,-15.752 18.564,-15.924 19.02,-16.044C19.476,-16.164 19.968,-16.224 20.496,-16.224C21.552,-16.224 22.376,-15.956 22.968,-15.42C23.56,-14.884 23.856,-14.184 23.856,-13.32C23.856,-12.872 23.78,-12.456 23.628,-12.072C23.476,-11.688 23.276,-11.328 23.028,-10.992C22.78,-10.656 22.488,-10.336 22.152,-10.032C21.816,-9.728 21.464,-9.432 21.096,-9.144C20.824,-8.92 20.568,-8.72 20.328,-8.544C20.088,-8.368 19.856,-8.192 19.632,-8.016L24.168,-8.016L24.168,-6.528L17.424,-6.528L17.064,-7.728C17.576,-8.144 18.06,-8.54 18.516,-8.916C18.972,-9.292 19.44,-9.688 19.92,-10.104C20.464,-10.568 20.944,-11.044 21.36,-11.532C21.776,-12.02 21.984,-12.576 21.984,-13.2C21.984,-13.696 21.836,-14.076 21.54,-14.34C21.244,-14.604 20.816,-14.736 20.256,-14.736C19.872,-14.736 19.512,-14.68 19.176,-14.568C18.84,-14.456 18.496,-14.312 18.144,-14.136L17.712,-15.528Z" style="fill:rgb(228,85,84);"/>
        </g>
    </g>
</svg>
