<?xml version="1.0" standalone="no"?>
<!DOCTYPE svg PUBLIC "-//W3C//DTD SVG 1.1//EN" "http://www.w3.org/Graphics/SVG/1.1/DTD/svg11.dtd">
<svg width="100%" height="100%" viewBox="0 0 450 350" version="1.1" xmlns="http://www.w3.org/2000/svg" xmlns:xlink="http://www.w3.org/1999/xlink" xml:space="preserve" style="fill-rule:evenodd;clip-rule:evenodd;stroke-linejoin:round;stroke-miterlimit:1.41421;">
    <g transform="matrix(0.899023,0,0,1,288.814,248.238)">
        <g transform="matrix(1.00231,-2.77556e-16,3.33067e-16,0.901096,-250.848,-309.603)">
            <path d="M103.708,310.992C305.329,338.861 291.606,157.456 291.606,157.456" style="fill:none;stroke-width:4.44px;stroke:rgb(228,85,84);"/>
        </g>
        <g transform="matrix(1,0,0,1,53.3638,-194.672)">
            <g>
                <g>
                    <text x="0px" y="0px" style="font-family:'Seravek';font-size:24px;fill:rgb(228,85,84);">K<tspan x="13.68px 25.296px " y="0px 0px ">ey</tspan>nsian</text>
                    <text x="0px" y="24px" style="font-family:'Seravek';font-size:24px;fill:rgb(228,85,84);">LR<tspan x="25.536px " y="24px ">A</tspan>S</text>
                </g>
            </g>
        </g>
    </g>
    <g transform="matrix(1,0,0,1,58.0957,-14.0797)">
        <path d="M62.078,68.166L62.078,320.826" style="fill:black;stroke-width:6px;stroke:rgb(84,103,123);"/>
    </g>
    <g transform="matrix(1.00246,0,0,1,53.1857,-34.593)">
        <path d="M63.922,338.529L326.513,338.529" style="fill:none;stroke-width:6px;stroke:rgb(84,103,123);"/>
    </g>
    <g transform="matrix(0.899023,0,0,1,4.59816,35.567)">
        <text x="0px" y="0px" style="font-family:'Seravek-Light';font-size:27.976px;fill:rgb(96,96,96);">Price Level</text>
    </g>
    <g transform="matrix(0.899023,0,0,1,388.683,332.846)">
        <text x="0px" y="0px" style="font-family:'Seravek-Light';font-size:24px;fill:rgb(96,96,96);">RNO</text>
    </g>
</svg>
