<?xml version="1.0" standalone="no"?>
<!DOCTYPE svg PUBLIC "-//W3C//DTD SVG 1.1//EN" "http://www.w3.org/Graphics/SVG/1.1/DTD/svg11.dtd">
<svg width="100%" height="100%" viewBox="0 0 450 350" version="1.1" xmlns="http://www.w3.org/2000/svg" xmlns:xlink="http://www.w3.org/1999/xlink" xml:space="preserve" style="fill-rule:evenodd;clip-rule:evenodd;stroke-linejoin:round;stroke-miterlimit:1.41421;">
    <g transform="matrix(1,0,0,1,15.0957,-18.0797)">
        <path d="M62.078,68.166L62.078,320.826" style="fill:black;stroke-width:6px;stroke:rgb(84,103,123);"/>
    </g>
    <g transform="matrix(1.00246,0,0,1,10.1857,-38.593)">
        <path d="M63.922,338.529L326.513,338.529" style="fill:none;stroke-width:6px;stroke:rgb(84,103,123);"/>
    </g>
    <g transform="matrix(0.899023,0,0,1,338.683,331.846)">
        <g transform="matrix(1,0,0,1,2.22466,-3)">
            <text x="0px" y="0px" style="font-family:'Seravek-Light';font-size:24px;fill:rgb(96,96,96);">Output</text>
        </g>
        <g transform="matrix(1,0,0,1,-354.214,-285.971)">
            <g>
                <text x="0px" y="0px" style="font-family:'Seravek-Light';font-size:24px;fill:rgb(96,96,96);">C<tspan x="14.04px 26.952px " y="0px 0px ">os</tspan>t</text>
            </g>
        </g>
    </g>
    <g transform="matrix(-1,3.44509e-16,-3.44509e-16,-1,373.743,392.506)">
        <path d="M118.431,323.517C118.431,323.517 135.591,63.371 270.078,169.999" style="fill:none;stroke-width:4px;stroke:rgb(228,85,84);"/>
    </g>
    <g transform="matrix(0.899023,0,0,1,267.284,67.2776)">
        <text x="0px" y="0px" style="font-family:'Seravek';font-size:24px;fill:rgb(228,85,84);">MC</text>
    </g>
    <g transform="matrix(0.899023,0,0,1,331.284,123.278)">
        <text x="0px" y="0px" style="font-family:'Seravek';font-size:24px;fill:rgb(228,85,84);">A<tspan x="14.664px 26.856px " y="0px 0px ">TC</tspan></text>
    </g>
    <g transform="matrix(1.23651,0,0,1.23651,-95.3863,-96.0812)">
        <clipPath id="_clip1">
            <rect x="165.868" y="181.262" width="194.942" height="54.481"/>
        </clipPath>
        <g clip-path="url(#_clip1)">
            <circle cx="259.697" cy="143.038" r="87.527" style="fill:none;stroke-width:3.23px;stroke-linecap:round;stroke:rgb(228,87,84);"/>
        </g>
    </g>
</svg>
