<?xml version="1.0" standalone="no"?>
<!DOCTYPE svg PUBLIC "-//W3C//DTD SVG 1.1//EN" "http://www.w3.org/Graphics/SVG/1.1/DTD/svg11.dtd">
<svg width="100%" height="100%" viewBox="0 0 400 350" version="1.1" xmlns="http://www.w3.org/2000/svg" xmlns:xlink="http://www.w3.org/1999/xlink" xml:space="preserve" style="fill-rule:evenodd;clip-rule:evenodd;stroke-linejoin:round;stroke-miterlimit:1.41421;">
    <g transform="matrix(0.899023,0,0,1,307.563,328.979)">
        <text x="0px" y="0px" style="font-family:'Seravek-Light';font-size:24px;fill:rgb(96,96,96);">Quan</text>
        <g transform="matrix(1,0,0,1,55.968,0)">
            <text x="0px" y="0px" style="font-family:'Seravek-Light';font-size:24px;fill:rgb(96,96,96);">tity</text>
        </g>
        <g transform="matrix(9.40633,0,0,8.4565,-2515.83,-2104.54)">
            <path d="M251.87,229.5L251.87,244.925" style="fill:none;stroke-width:0.24px;stroke-dasharray:0.24,0.24;stroke:rgb(96,96,96);"/>
        </g>
        <g transform="matrix(12.7488,0,0,11.4615,-3412.21,-2839.53)">
            <path d="M251.87,229.5L251.87,244.925" style="fill:none;stroke-width:0.17px;stroke-dasharray:0.17,0.17;stroke:rgb(96,96,96);"/>
        </g>
        <g transform="matrix(12.7488,0,0,11.4615,-3304.31,-2839.53)">
            <path d="M251.87,229.5L251.87,244.925" style="fill:none;stroke-width:0.17px;stroke-dasharray:0.17,0.17;stroke:rgb(96,96,96);"/>
        </g>
    </g>
    <g transform="matrix(0.899023,0,0,1,262.314,119.274)">
        <g transform="matrix(-1.41728e-15,-7.92326,8.81319,-1.27417e-15,-2253.31,2043.09)">
            <path d="M251.87,229.5C251.87,234.642 251.87,239.783 251.87,244.925" style="fill:none;stroke-width:0.25px;stroke-dasharray:0.25,0.25;stroke:rgb(96,96,96);"/>
        </g>
        <g transform="matrix(1,0,0,1,-5.18281,-31.4987)">
            <text x="0px" y="0px" style="font-family:'Seravek';font-size:24px;fill:rgb(228,85,84);">S</text>
            <g transform="matrix(1,0,0,1,59.9566,26.8574)">
                <text x="0px" y="0px" style="font-family:'Seravek';font-size:24px;fill:rgb(107,164,96);">Min</text>
            </g>
        </g>
        <g transform="matrix(1,0,0,1,-5.42357,123.446)">
            <text x="0px" y="0px" style="font-family:'Seravek';font-size:24px;fill:rgb(228,85,84);">D</text>
        </g>
        <g transform="matrix(-1.78874e-16,-1,1.11232,-1.60812e-16,-360.468,224.682)">
            <path d="M103.708,310.992L250.763,163.937" style="fill:none;stroke-width:4px;stroke:rgb(228,85,84);"/>
        </g>
        <g transform="matrix(1.11232,-2.22044e-16,2.46984e-16,1,-293.47,-189.994)">
            <path d="M103.708,310.992L250.763,163.937" style="fill:none;stroke-width:4px;stroke:rgb(228,85,84);"/>
        </g>
        <g transform="matrix(1,0,0,1,-108.597,211.572)">
            <text x="0px" y="0px" style="font-family:'Seravek-Light';font-size:24px;fill:rgb(96,96,96);">Q1</text>
        </g>
        <g transform="matrix(1,0,0,1,-165.326,211.572)">
            <text x="0px" y="0px" style="font-family:'Seravek-Light';font-size:24px;fill:rgb(96,96,96);">Q3</text>
        </g>
        <g transform="matrix(1,0,0,1,-56.3183,211.572)">
            <text x="0px" y="0px" style="font-family:'Seravek-Light';font-size:24px;fill:rgb(96,96,96);">Q2</text>
        </g>
        <g transform="matrix(1,0,0,1,-269.883,52.572)">
            <text x="0px" y="0px" style="font-family:'Seravek-Light';font-size:24px;fill:rgb(96,96,96);">P1</text>
        </g>
        <g transform="matrix(1,0,0,1,-269.883,5.572)">
            <text x="0px" y="0px" style="font-family:'Seravek-Light';font-size:24px;fill:rgb(96,96,96);">PM</text>
        </g>
        <g transform="matrix(-0.952744,-0.856539,0.952746,-0.85654,-150.402,355.024)">
            <path d="M103.708,310.992L250.763,163.937" style="fill:none;stroke-width:3.3px;stroke:rgb(107,164,96);"/>
        </g>
    </g>
    <g transform="matrix(1,0,0,1.0007,-8.90431,-20.1274)">
        <path d="M62.078,68.166L62.078,320.826" style="fill:black;stroke-width:6.05px;stroke:rgb(84,103,123);"/>
    </g>
    <g transform="matrix(1.00288,0,0,1,-13.9513,-40.593)">
        <path d="M63.922,338.529L326.513,338.529" style="fill:none;stroke-width:6.01px;stroke:rgb(84,103,123);"/>
    </g>
    <g transform="matrix(0.899023,0,0,1,0.59816,35.567)">
        <text x="0px" y="0px" style="font-family:'Seravek-Light';font-size:27.976px;fill:rgb(96,96,96);">Price</text>
    </g>
</svg>
