<?xml version="1.0" standalone="no"?>
<!DOCTYPE svg PUBLIC "-//W3C//DTD SVG 1.1//EN" "http://www.w3.org/Graphics/SVG/1.1/DTD/svg11.dtd">
<svg width="100%" height="100%" viewBox="0 0 800 350" version="1.1" xmlns="http://www.w3.org/2000/svg" xmlns:xlink="http://www.w3.org/1999/xlink" xml:space="preserve" style="fill-rule:evenodd;clip-rule:evenodd;stroke-linejoin:round;stroke-miterlimit:1.41421;">
    <g transform="matrix(8.45651,0,0,8.4565,-1926.85,-1768.7)">
        <path d="M251.87,229.5L251.87,244.925" style="fill:none;stroke-width:0.24px;stroke-dasharray:0.24,0.24;stroke:rgb(96,96,96);"/>
    </g>
    <g transform="matrix(8.45651,0,0,8.4565,-1551.85,-1768.7)">
        <path d="M251.87,229.5L251.87,244.925" style="fill:none;stroke-width:0.24px;stroke-dasharray:0.24,0.24;stroke:rgb(96,96,96);"/>
    </g>
    <g transform="matrix(1.00246,0,0,1,-1.8143,-35.593)">
        <path d="M63.922,338.529L326.513,338.529" style="fill:none;stroke-width:6px;stroke:rgb(84,103,123);"/>
    </g>
    <g transform="matrix(0.899023,0,0,1,0.5982,40.567)">
        <text x="0px" y="0px" style="font-family:'Seravek-Light';font-size:27.976px;fill:rgb(96,96,96);">W<tspan x="25.122px 38.915px " y="0px 0px ">ag</tspan>e</text>
    </g>
    <g transform="matrix(0.899023,0,0,1,513.683,331.846)">
        <g transform="matrix(1,0,0,1,-209.116,5)">
            <text x="0px" y="0px" style="font-family:'Seravek-Light';font-size:24px;fill:rgb(96,96,96);">Quan</text>
        </g>
        <g transform="matrix(1,0,0,1,-358.167,5)">
            <text x="0px" y="0px" style="font-family:'Seravek-Light';font-size:24px;fill:rgb(96,96,96);">Q1</text>
        </g>
        <g transform="matrix(1,0,0,1,60.0651,5)">
            <text x="0px" y="0px" style="font-family:'Seravek-Light';font-size:24px;fill:rgb(96,96,96);">Q1</text>
        </g>
        <g transform="matrix(1,0,0,1,-153.148,5)">
            <text x="0px" y="0px" style="font-family:'Seravek-Light';font-size:24px;fill:rgb(96,96,96);">tity</text>
        </g>
    </g>
    <g transform="matrix(0.899023,0,0,1,463.814,248.238)">
        <g transform="matrix(-0.862798,-0.775675,0.862799,-0.775676,-369.761,247.944)">
            <path d="M103.708,310.992L250.763,163.937" style="fill:none;stroke-width:3.65px;stroke:rgb(228,85,84);"/>
        </g>
        <g transform="matrix(1.11232,0,0,1,-81.9982,-263.318)">
            <path d="M62.078,68.166L62.078,320.826" style="fill:black;stroke-width:6px;stroke:rgb(84,103,123);"/>
        </g>
        <g transform="matrix(1.11505,0,0,1,-87.4597,-283.831)">
            <path d="M63.922,338.529L326.513,338.529" style="fill:none;stroke-width:6px;stroke:rgb(84,103,123);"/>
        </g>
        <g transform="matrix(1,0,0,1,-88.1132,-207.671)">
            <text x="0px" y="0px" style="font-family:'Seravek-Light';font-size:27.976px;fill:rgb(96,96,96);">W<tspan x="25.122px 38.915px " y="0px 0px ">ag</tspan>e</text>
        </g>
        <g transform="matrix(1,0,0,1,-68.0915,-67.671)">
            <text x="0px" y="0px" style="font-family:'Seravek-Light';font-size:27.976px;fill:rgb(96,96,96);">W<tspan x="24.983px " y="0px ">e</tspan></text>
        </g>
        <g transform="matrix(1,0,0,1,-494.11,-67.671)">
            <text x="0px" y="0px" style="font-family:'Seravek-Light';font-size:27.976px;fill:rgb(96,96,96);">W<tspan x="24.983px " y="0px ">e</tspan></text>
        </g>
        <g transform="matrix(1,0,0,1,276.822,88.608)">
            <text x="0px" y="0px" style="font-family:'Seravek-Light';font-size:24px;fill:rgb(96,96,96);">Quan</text>
        </g>
        <g transform="matrix(1,0,0,1,332.79,88.608)">
            <text x="0px" y="0px" style="font-family:'Seravek-Light';font-size:24px;fill:rgb(96,96,96);">tity</text>
        </g>
        <g transform="matrix(-2.0422e-16,-1.1417,1.26993,-1.83599e-16,-653.807,148.068)">
            <path d="M103.074,330.969C103.074,330.969 257.506,265.861 265.569,234.93C271.314,212.888 217.6,179.345 217.6,179.345" style="fill:none;stroke-width:3.5px;stroke:rgb(228,85,84);"/>
        </g>
        <g transform="matrix(1.28044,-2.55605e-16,2.84314e-16,1.15114,-99.4837,-348.069)">
            <path d="M103.708,310.992L250.763,163.937" style="fill:none;stroke-width:3.47px;stroke:rgb(228,85,84);"/>
        </g>
        <g transform="matrix(-2.05909e-16,-1.15115,1.28044,-1.85118e-16,-180.496,127.209)">
            <path d="M103.708,310.992L250.763,163.937" style="fill:none;stroke-width:3.47px;stroke:rgb(228,85,84);"/>
        </g>
        <g transform="matrix(1,0,0,1,-223.372,28.0489)">
            <text x="0px" y="0px" style="font-family:'Seravek';font-size:20px;fill:rgb(228,85,84);">D = MRP</text>
        </g>
        <g transform="matrix(1,0,0,1,-238.944,-85.9511)">
            <text x="0px" y="0px" style="font-family:'Seravek';font-size:20px;fill:rgb(228,85,84);">S = A<tspan x="43.82px 56.02px " y="0px 0px ">C </tspan>= MC</text>
        </g>
        <g transform="matrix(1,0,0,1,234.57,-160.365)">
            <text x="0px" y="0px" style="font-family:'Seravek';font-size:20px;fill:rgb(228,85,84);">Labour Suppl</text>
            <g transform="matrix(1,0,0,1,111.72,0)">
                <text x="0px" y="0px" style="font-family:'Seravek';font-size:20px;fill:rgb(228,85,84);">y</text>
            </g>
        </g>
        <g transform="matrix(1,0,0,1,233.138,9.59966)">
            <text x="0px" y="0px" style="font-family:'Seravek';font-size:20px;fill:rgb(228,85,84);">Labour Demand</text>
        </g>
    </g>
    <g transform="matrix(1,0,0,1,3.09569,-15.0797)">
        <path d="M62.078,68.166L62.078,320.826" style="fill:black;stroke-width:6px;stroke:rgb(84,103,123);"/>
    </g>
    <g transform="matrix(-1.27417e-15,-7.92326,7.92326,-1.27417e-15,-1366.39,2169.83)">
        <path d="M251.87,229.5C251.87,234.642 251.87,239.783 251.87,244.925" style="fill:none;stroke-width:0.25px;stroke-dasharray:0.25,0.25;stroke:rgb(96,96,96);"/>
    </g>
</svg>
