<?xml version="1.0" standalone="no"?>
<!DOCTYPE svg PUBLIC "-//W3C//DTD SVG 1.1//EN" "http://www.w3.org/Graphics/SVG/1.1/DTD/svg11.dtd">
<svg width="100%" height="100%" viewBox="0 0 450 350" version="1.1" xmlns="http://www.w3.org/2000/svg" xmlns:xlink="http://www.w3.org/1999/xlink" xml:space="preserve" style="fill-rule:evenodd;clip-rule:evenodd;stroke-linejoin:round;stroke-miterlimit:1.41421;">
    <g transform="matrix(1.10581,0,0,1.10581,-34.6791,-20.1977)">
        <path d="M102.309,190.883L327.742,190.883" style="fill:none;stroke-width:3.62px;stroke:rgb(81,133,83);"/>
    </g>
    <g transform="matrix(1,0,0,1,15.0957,-18.0797)">
        <path d="M62.078,68.166L62.078,320.826" style="fill:black;stroke-width:6px;stroke:rgb(84,103,123);"/>
    </g>
    <g transform="matrix(1.00246,0,0,1,10.1857,-38.593)">
        <path d="M63.922,338.529L326.513,338.529" style="fill:none;stroke-width:6px;stroke:rgb(84,103,123);"/>
    </g>
    <g transform="matrix(0.899023,0,0,1,338.683,331.846)">
        <g transform="matrix(1,0,0,1,4.4493,-3)">
            <text x="0px" y="0px" style="font-family:'Seravek-Light';font-size:24px;fill:rgb(96,96,96);">Quantity</text>
        </g>
        <g transform="matrix(1,0,0,1,-134.591,-3)">
            <text x="0px" y="0px" style="font-family:'Seravek-Light';font-size:24px;fill:rgb(96,96,96);">Q1</text>
        </g>
        <g transform="matrix(1,0,0,1,-352.41,-287.971)">
            <g>
                <text x="0px" y="0px" style="font-family:'Seravek-Light';font-size:24px;fill:rgb(96,96,96);">Price</text>
            </g>
        </g>
        <g transform="matrix(1,0,0,1,-322.377,-134.971)">
            <g>
                <text x="0px" y="0px" style="font-family:'Seravek-Light';font-size:24px;fill:rgb(96,96,96);">P1</text>
            </g>
        </g>
        <g transform="matrix(8.06276,0,0,7.24861,-2152.98,-1807.53)">
            <path d="M251.87,229.5C251.87,234.642 251.87,239.783 251.87,244.925" style="fill:none;stroke-width:0.28px;stroke-dasharray:0.28,0.28;stroke:rgb(96,96,96);"/>
        </g>
    </g>
    <g transform="matrix(-1,3.44509e-16,-3.44509e-16,-1,373.743,392.506)">
        <path d="M118.431,323.517C118.431,323.517 135.591,63.371 270.078,169.999" style="fill:none;stroke-width:4px;stroke:rgb(228,85,84);"/>
    </g>
    <g transform="matrix(0.899023,0,0,1,267.284,67.2776)">
        <text x="0px" y="0px" style="font-family:'Seravek';font-size:24px;fill:rgb(228,85,84);">MC</text>
    </g>
    <g transform="matrix(0.899023,0,0,1,331.284,123.278)">
        <g transform="matrix(1,0,0,1,8.89855,-21)">
            <text x="0px" y="0px" style="font-family:'Seravek';font-size:24px;fill:rgb(228,85,84);">A</text>
        </g>
        <g transform="matrix(1,0,0,1,23.5625,-21)">
            <text x="0px" y="0px" style="font-family:'Seravek';font-size:24px;fill:rgb(228,85,84);">T<tspan x="12.192px " y="0px ">C</tspan></text>
        </g>
        <g transform="matrix(1,0,0,1,6.87777,64)">
            <text x="0px" y="0px" style="font-family:'Seravek';font-size:20px;fill:rgb(81,133,83);">D = AR = MR</text>
        </g>
    </g>
    <g transform="matrix(1.23651,0,0,1.23651,-95.3863,-96.0812)">
        <clipPath id="_clip1">
            <rect x="164.144" y="162.071" width="189.98" height="73.789"/>
        </clipPath>
        <g clip-path="url(#_clip1)">
            <circle cx="259.697" cy="143.038" r="87.527" style="fill:none;stroke-width:3.23px;stroke-linecap:round;stroke:rgb(228,87,84);"/>
        </g>
    </g>
</svg>
