<?xml version="1.0" standalone="no"?>
<!DOCTYPE svg PUBLIC "-//W3C//DTD SVG 1.1//EN" "http://www.w3.org/Graphics/SVG/1.1/DTD/svg11.dtd">
<svg width="100%" height="100%" viewBox="0 0 600 350" version="1.1" xmlns="http://www.w3.org/2000/svg" xmlns:xlink="http://www.w3.org/1999/xlink" xml:space="preserve" style="fill-rule:evenodd;clip-rule:evenodd;stroke-linejoin:round;stroke-miterlimit:1.41421;">
    <g transform="matrix(0.899023,0,0,1,407.563,328.979)">
        <g transform="matrix(1,0,0,1,10.0109,1)">
            <text x="0px" y="0px" style="font-family:'Seravek-Light';font-size:24px;fill:rgb(96,96,96);">Unemployment %</text>
        </g>
        <g transform="matrix(12.5328,0,0,11.2673,-3408.83,-2790.61)">
            <path d="M251.87,229.5L251.87,244.925" style="fill:none;stroke-width:0.18px;stroke-dasharray:0.18,0.18;stroke:rgb(96,96,96);"/>
        </g>
        <g transform="matrix(4.2701,0,0,3.83893,-1259.36,-969.925)">
            <path d="M251.87,229.5L251.87,244.925" style="fill:none;stroke-width:0.52px;stroke-dasharray:0.52,0.52;stroke:rgb(96,96,96);"/>
        </g>
    </g>
    <g transform="matrix(0.899023,0,0,1,362.314,119.274)">
        <g transform="matrix(-5.07409e-16,-2.83665,3.15526,-4.56173e-16,-972.542,721)">
            <path d="M251.87,229.5C251.87,234.642 251.87,239.783 251.87,244.925" style="fill:none;stroke-width:0.71px;stroke-dasharray:0.71,0.71;stroke:rgb(96,96,96);"/>
        </g>
        <g transform="matrix(-1.22781e-15,-6.86402,7.63497,-1.10383e-15,-2000.64,1847.37)">
            <path d="M251.87,229.5C251.87,234.642 251.87,239.783 251.87,244.925" style="fill:none;stroke-width:0.29px;stroke-dasharray:0.29,0.29;stroke:rgb(96,96,96);"/>
        </g>
        <g transform="matrix(1,0,0,1,-88.6199,85.8049)">
            <text x="0px" y="0px" style="font-family:'Seravek';font-size:20px;fill:rgb(228,85,84);">Phillips C<tspan x="77.52px " y="0px ">u</tspan>rve</text>
        </g>
        <g transform="matrix(-2.60243e-16,-1.4549,1.53505,-2.21927e-16,-455.064,344.36)">
            <path d="M103.708,310.992C103.708,310.992 111.89,253.647 162.926,202.611C205.151,160.386 250.763,163.937 250.763,163.937" style="fill:none;stroke-width:2.82px;stroke:rgb(228,85,84);"/>
        </g>
        <g transform="matrix(1,0,0,1,-144.192,211.572)">
            <text x="0px" y="0px" style="font-family:'Seravek-Light';font-size:24px;fill:rgb(96,96,96);">U1</text>
        </g>
        <g transform="matrix(1,0,0,1,-216.492,211.572)">
            <text x="0px" y="0px" style="font-family:'Seravek-Light';font-size:24px;fill:rgb(96,96,96);">U2</text>
        </g>
        <g transform="matrix(1,0,0,1,-284.343,124.572)">
            <text x="0px" y="0px" style="font-family:'Seravek-Light';font-size:24px;fill:rgb(96,96,96);">P1</text>
        </g>
        <g transform="matrix(1,0,0,1,-285.456,11.572)">
            <text x="0px" y="0px" style="font-family:'Seravek-Light';font-size:24px;fill:rgb(96,96,96);">P2</text>
        </g>
    </g>
    <g transform="matrix(1,0,0,1.0007,78.0957,-20.1274)">
        <path d="M62.078,68.166L62.078,320.826" style="fill:black;stroke-width:6.05px;stroke:rgb(84,103,123);"/>
    </g>
    <g transform="matrix(1.00288,0,0,1,73.0487,-40.593)">
        <path d="M63.922,338.529L326.513,338.529" style="fill:none;stroke-width:6.01px;stroke:rgb(84,103,123);"/>
    </g>
    <g transform="matrix(0.899023,0,0,1,11.1834,35.567)">
        <g>
            <text x="0px" y="0px" style="font-family:'Seravek-Light';font-size:27.976px;fill:rgb(96,96,96);">Inflation %</text>
        </g>
    </g>
</svg>
