<?xml version="1.0" standalone="no"?>
<!DOCTYPE svg PUBLIC "-//W3C//DTD SVG 1.1//EN" "http://www.w3.org/Graphics/SVG/1.1/DTD/svg11.dtd">
<svg width="100%" height="100%" viewBox="0 0 430 350" version="1.1" xmlns="http://www.w3.org/2000/svg" xmlns:xlink="http://www.w3.org/1999/xlink" xml:space="preserve" style="fill-rule:evenodd;clip-rule:evenodd;stroke-linejoin:round;stroke-miterlimit:1.41421;">
    <g transform="matrix(0.899023,0,0,1,277.937,119.34)">
        <g transform="matrix(1,0,0,1,12.3995,134.339)">
            <text x="0px" y="0px" style="font-family:'Seravek';font-size:24px;fill:rgb(228,85,84);">MPB = MSB</text>
        </g>
        <g transform="matrix(1,0,0,1,26.3035,6.44301)">
            <g>
                <text x="0px" y="0px" style="font-family:'Seravek';font-size:24px;fill:rgb(228,85,84);">M</text>
                <text x="20.304px" y="0px" style="font-family:'Seravek';font-size:24px;fill:rgb(84,103,123);">S</text>
                <text x="32.328px" y="0px" style="font-family:'Seravek';font-size:24px;fill:rgb(228,85,84);">C</text>
            </g>
        </g>
        <g transform="matrix(1,0,0,1,-24.0173,-40.3539)">
            <g>
                <text x="0px" y="0px" style="font-family:'Seravek';font-size:24px;fill:rgb(228,85,84);">M</text>
                <text x="20.304px" y="0px" style="font-family:'Seravek';font-size:24px;fill:rgb(84,103,123);">P</text>
                <text x="32.496px" y="0px" style="font-family:'Seravek';font-size:24px;fill:rgb(228,85,84);">C</text>
            </g>
        </g>
        <g transform="matrix(7.41528,0,0,6.66651,-1929.2,-1456.36)">
            <path d="M251.87,229.5C251.87,234.642 251.87,239.783 251.87,244.925" style="fill:none;stroke-width:0.3px;stroke-dasharray:0.3,0.3;stroke:rgb(96,96,96);"/>
        </g>
        <g transform="matrix(11.0023,0,0,9.89128,-2885.35,-2245.53)">
            <path d="M251.87,229.5C251.87,234.642 251.87,239.783 251.87,244.925" style="fill:none;stroke-width:0.2px;stroke-dasharray:0.2,0.2;stroke:rgb(96,96,96);"/>
        </g>
        <g transform="matrix(-1.0765e-15,-6.01815,6.6941,-9.67795e-16,-1753.93,1539.5)">
            <path d="M251.87,229.5C251.87,234.642 251.87,239.783 251.87,244.925" style="fill:none;stroke-width:0.33px;stroke-dasharray:0.33,0.33;stroke:rgb(96,96,96);"/>
        </g>
        <g transform="matrix(-1.62569e-15,-9.08841,10.1092,-1.46153e-15,-2537.7,2359.81)">
            <path d="M251.87,229.5C251.87,234.642 251.87,239.783 251.87,244.925" style="fill:none;stroke-width:0.22px;stroke-dasharray:0.22,0.22;stroke:rgb(96,96,96);"/>
        </g>
    </g>
    <g transform="matrix(1,0,0,1,21.0957,-20.0797)">
        <path d="M62.078,68.166L62.078,320.826" style="fill:black;stroke-width:6px;stroke:rgb(84,103,123);"/>
    </g>
    <g transform="matrix(1.00246,0,0,1,16.1857,-40.593)">
        <path d="M63.922,338.529L326.513,338.529" style="fill:none;stroke-width:6px;stroke:rgb(84,103,123);"/>
    </g>
    <g transform="matrix(-1.60812e-16,-1,1,-1.60812e-16,-31.6244,350.81)">
        <path d="M103.708,310.992L250.763,163.937" style="fill:none;stroke-width:4px;stroke:rgb(228,85,84);"/>
    </g>
    <g transform="matrix(0.899023,0,0,1,9.59816,18.567)">
        <text x="0px" y="0px" style="font-family:'Seravek-Light';font-size:23px;fill:rgb(96,96,96);">C<tspan x="13.455px 25.829px " y="0px 0px ">os</tspan>t &amp;</text>
        <text x="0px" y="23px" style="font-family:'Seravek-Light';font-size:23px;fill:rgb(96,96,96);">Benefit</text>
    </g>
    <g transform="matrix(0.899023,0,0,1,328.683,331.846)">
        <g transform="matrix(1,0,0,1,16.6848,0)">
            <text x="0px" y="0px" style="font-family:'Seravek-Light';font-size:24px;fill:rgb(96,96,96);">Quan</text>
        </g>
        <g transform="matrix(1,0,0,1,-179.083,0)">
            <text x="0px" y="0px" style="font-family:'Seravek-Light';font-size:24px;fill:rgb(96,96,96);">Q</text>
        </g>
        <g transform="matrix(1,0,0,1,-305.508,-182.591)">
            <text x="0px" y="0px" style="font-family:'Seravek-Light';font-size:24px;fill:rgb(96,96,96);">P</text>
        </g>
        <g transform="matrix(1,0,0,1,-305.508,-134.591)">
            <text x="0px" y="0px" style="font-family:'Seravek-Light';font-size:24px;fill:rgb(96,96,96);">P1</text>
        </g>
        <g transform="matrix(1,0,0,1,-127.917,0)">
            <text x="0px" y="0px" style="font-family:'Seravek-Light';font-size:24px;fill:rgb(96,96,96);">Q1</text>
        </g>
        <g transform="matrix(1,0,0,1,72.6528,0)">
            <text x="0px" y="0px" style="font-family:'Seravek-Light';font-size:24px;fill:rgb(96,96,96);">tity</text>
        </g>
    </g>
    <g transform="matrix(1,0,0,1,25.0952,-26.7811)">
        <path d="M134.855,279.845L266.064,148.636" style="fill:none;stroke-width:4px;stroke:rgb(228,85,84);"/>
    </g>
    <g transform="matrix(1,0,0,1,-22.2917,-74.168)">
        <path d="M134.855,279.845L266.064,148.636" style="fill:none;stroke-width:4px;stroke:rgb(228,85,84);"/>
    </g>
</svg>
