<?xml version="1.0" standalone="no"?>
<!DOCTYPE svg PUBLIC "-//W3C//DTD SVG 1.1//EN" "http://www.w3.org/Graphics/SVG/1.1/DTD/svg11.dtd">
<svg width="100%" height="100%" viewBox="0 0 400 350" version="1.1" xmlns="http://www.w3.org/2000/svg" xmlns:xlink="http://www.w3.org/1999/xlink" xml:space="preserve" style="fill-rule:evenodd;clip-rule:evenodd;stroke-linejoin:round;stroke-miterlimit:1.41421;">
    <g transform="matrix(0.899023,0,0,1,307.563,328.979)">
        <g transform="matrix(11.1189,0,0,9.99618,-2974.38,-2478.37)">
            <path d="M251.87,229.5L251.87,244.925" style="fill:none;stroke-width:0.2px;stroke-dasharray:0.2,0.2;stroke:rgb(96,96,96);"/>
        </g>
        <text x="0px" y="0px" style="font-family:'Seravek-Light';font-size:24px;fill:rgb(96,96,96);">Quan</text>
        <g transform="matrix(1,0,0,1,55.968,0)">
            <text x="0px" y="0px" style="font-family:'Seravek-Light';font-size:24px;fill:rgb(96,96,96);">tity</text>
        </g>
        <g transform="matrix(7.93407,0,0,7.13291,-2120.05,-1778.04)">
            <path d="M251.87,229.5L251.87,244.925" style="fill:none;stroke-width:0.28px;stroke-dasharray:0.28,0.28;stroke:rgb(96,96,96);"/>
        </g>
    </g>
    <g transform="matrix(0.899023,0,0,1,262.314,119.274)">
        <g transform="matrix(-1.69723e-15,-9.48835,10.5541,-1.52585e-15,-2655.07,2460.07)">
            <path d="M251.87,229.5C251.87,234.642 251.87,239.783 251.87,244.925" style="fill:none;stroke-width:0.21px;stroke-dasharray:0.21,0.21;stroke:rgb(96,96,96);"/>
        </g>
        <g transform="matrix(-1.13542e-15,-6.34755,7.0605,-1.02077e-15,-1851.49,1621.8)">
            <path d="M251.87,229.5C251.87,234.642 251.87,239.783 251.87,244.925" style="fill:none;stroke-width:0.32px;stroke-dasharray:0.32,0.32;stroke:rgb(96,96,96);"/>
        </g>
        <g transform="matrix(-1.13542e-15,-6.34755,7.0605,-1.02077e-15,-1851.49,1715.8)">
            <path d="M251.87,229.5C251.87,234.642 251.87,239.783 251.87,244.925" style="fill:none;stroke-width:0.32px;stroke-dasharray:0.32,0.32;stroke:rgb(96,96,96);"/>
        </g>
        <g transform="matrix(1,0,0,1,9.42979,4.65345)">
            <text x="0px" y="0px" style="font-family:'Seravek';font-size:24px;fill:rgb(228,85,84);">S</text>
            <text x="17.184px" y="-7.992px" style="font-family:'Seravek';font-size:13.992px;fill:rgb(228,85,84);">(M</text>
            <text x="33.737px" y="-7.992px" style="font-family:'Seravek';font-size:13.992px;fill:rgb(84,103,123);">P</text>
            <text x="40.844px" y="-7.992px" style="font-family:'Seravek';font-size:13.992px;fill:rgb(228,85,84);">C<tspan x="49.98px " y="-7.992px ">)</tspan></text>
        </g>
        <g transform="matrix(1,0,0,1,-5.42357,123.446)">
            <text x="0px" y="0px" style="font-family:'Seravek';font-size:24px;fill:rgb(228,85,84);">D</text>
        </g>
        <g transform="matrix(1,0,0,1,-34.4181,-40.5833)">
            <g>
                <text x="0px" y="0px" style="font-family:'Seravek';font-size:24px;fill:rgb(228,85,84);">S + <tspan x="35.928px 46.872px 58.896px " y="0px 0px 0px ">Tax</tspan></text>
                <text x="75.84px" y="-7.992px" style="font-family:'Seravek';font-size:13.992px;fill:rgb(228,85,84);">(M</text>
                <text x="92.393px" y="-7.992px" style="font-family:'Seravek';font-size:13.992px;fill:rgb(84,103,123);">S</text>
                <text x="99.403px" y="-7.992px" style="font-family:'Seravek';font-size:13.992px;fill:rgb(228,85,84);">C<tspan x="108.538px " y="-7.992px ">)</tspan></text>
            </g>
        </g>
        <g transform="matrix(-1.78874e-16,-1,1.11232,-1.60812e-16,-360.468,224.682)">
            <path d="M103.708,310.992L250.763,163.937" style="fill:none;stroke-width:4px;stroke:rgb(228,85,84);"/>
        </g>
        <g transform="matrix(1,0,0,1,-84.1259,211.572)">
            <text x="0px" y="0px" style="font-family:'Seravek-Light';font-size:24px;fill:rgb(96,96,96);">Q1</text>
        </g>
        <g transform="matrix(1,0,0,1,-135.293,211.572)">
            <text x="0px" y="0px" style="font-family:'Seravek-Light';font-size:24px;fill:rgb(96,96,96);">Q2</text>
        </g>
        <g transform="matrix(1,0,0,1,-269.883,78.572)">
            <text x="0px" y="0px" style="font-family:'Seravek-Light';font-size:24px;fill:rgb(96,96,96);">P1</text>
        </g>
        <g transform="matrix(1,0,0,1,-269.883,28.572)">
            <text x="0px" y="0px" style="font-family:'Seravek-Light';font-size:24px;fill:rgb(96,96,96);">P2</text>
        </g>
    </g>
    <g transform="matrix(1,0,0,1.0007,-8.90431,-20.1274)">
        <path d="M62.078,68.166L62.078,320.826" style="fill:black;stroke-width:6.05px;stroke:rgb(84,103,123);"/>
    </g>
    <g transform="matrix(1.00288,0,0,1,-13.9513,-40.593)">
        <path d="M63.922,338.529L326.513,338.529" style="fill:none;stroke-width:6.01px;stroke:rgb(84,103,123);"/>
    </g>
    <g transform="matrix(1,0,0,1,-48.7471,-72.3864)">
        <path d="M134.855,279.845L266.064,148.636" style="fill:none;stroke-width:4px;stroke:rgb(228,85,84);"/>
    </g>
    <g transform="matrix(1,0,0,1,-1.26494,-26.0969)">
        <path d="M134.855,279.845L266.064,148.636" style="fill:none;stroke-width:4px;stroke:rgb(228,85,84);"/>
    </g>
    <g transform="matrix(0.899023,0,0,1,0.59816,35.567)">
        <text x="0px" y="0px" style="font-family:'Seravek-Light';font-size:27.976px;fill:rgb(96,96,96);">Price</text>
    </g>
</svg>
