<?xml version="1.0" standalone="no"?>
<!DOCTYPE svg PUBLIC "-//W3C//DTD SVG 1.1//EN" "http://www.w3.org/Graphics/SVG/1.1/DTD/svg11.dtd">
<svg width="100%" height="100%" viewBox="0 0 400 350" version="1.1" xmlns="http://www.w3.org/2000/svg" xmlns:xlink="http://www.w3.org/1999/xlink" xml:space="preserve" style="fill-rule:evenodd;clip-rule:evenodd;stroke-linejoin:round;stroke-miterlimit:1.41421;">
    <g transform="matrix(1,0,0,1,-8.90431,-20.0797)">
        <path d="M62.078,68.166L62.078,320.826" style="fill:black;stroke-width:6px;stroke:rgb(84,103,123);"/>
    </g>
    <g transform="matrix(1.00246,0,0,1,-13.8143,-40.593)">
        <path d="M63.922,338.529L326.513,338.529" style="fill:none;stroke-width:6px;stroke:rgb(84,103,123);"/>
    </g>
    <g transform="matrix(1,0,0,1,-12.185,-53.403)">
        <path d="M103.708,310.992L266.064,148.636" style="fill:none;stroke-width:4px;stroke:rgb(228,85,84);"/>
    </g>
    <g transform="matrix(0.899023,0,0,1,2.59816,35.567)">
        <text x="0px" y="0px" style="font-family:'Seravek-Light';font-size:27.976px;fill:rgb(96,96,96);">Price</text>
    </g>
    <g transform="matrix(0.899023,0,0,1,313.683,331.846)">
        <text x="0px" y="0px" style="font-family:'Seravek-Light';font-size:24px;fill:rgb(96,96,96);">Quan</text>
        <g transform="matrix(1,0,0,1,55.968,0)">
            <text x="0px" y="0px" style="font-family:'Seravek-Light';font-size:24px;fill:rgb(96,96,96);">tity</text>
        </g>
    </g>
    <g transform="matrix(0.899023,0,0,1,262.314,119.274)">
        <text x="0px" y="0px" style="font-family:'Seravek';font-size:24px;fill:rgb(228,85,84);">S</text>
        <path d="M15.24,-6.528L15.24,-14.112L12.816,-13.32L12.384,-14.784L15.816,-15.984L17.112,-15.984L17.112,-6.528L15.24,-6.528Z" style="fill:rgb(228,85,84);"/>
    </g>
</svg>
