<?xml version="1.0" encoding="UTF-8" standalone="no"?>
<!DOCTYPE svg PUBLIC "-//W3C//DTD SVG 1.1//EN" "http://www.w3.org/Graphics/SVG/1.1/DTD/svg11.dtd">
<svg width="100%" height="100%" viewBox="0 0 400 350" version="1.1" xmlns="http://www.w3.org/2000/svg" xmlns:xlink="http://www.w3.org/1999/xlink" xml:space="preserve" style="fill-rule:evenodd;clip-rule:evenodd;stroke-linejoin:round;stroke-miterlimit:1.41421;">
    <g transform="matrix(-1.46901e-15,-9.13488,3.44518,-5.54034e-16,-731.604,2543.89)">
        <path d="M251.87,229.5C251.87,234.642 251.87,239.783 251.87,244.925" style="fill:none;stroke:rgb(96,96,96);stroke-width:0.29px;stroke-dasharray:0.29,0.29;"/>
    </g>
    <g transform="matrix(-1.46901e-15,-9.13488,6.01913,-9.67962e-16,-1322.32,2503.89)">
        <path d="M251.87,229.5C251.87,234.642 251.87,239.783 251.87,244.925" style="fill:none;stroke:rgb(96,96,96);stroke-width:0.26px;stroke-dasharray:0.26,0.26;"/>
    </g>
    <g transform="matrix(-1.46901e-15,-9.13488,8.76021,-1.40877e-15,-1951.4,2462.89)">
        <path d="M251.87,229.5C251.87,234.642 251.87,239.783 251.87,244.925" style="fill:none;stroke:rgb(96,96,96);stroke-width:0.22px;stroke-dasharray:0.22,0.22;"/>
    </g>
    <g transform="matrix(-1.46901e-15,-9.13488,11.2554,-1.81003e-15,-2524.05,2424.89)">
        <path d="M251.87,229.5C251.87,234.642 251.87,239.783 251.87,244.925" style="fill:none;stroke:rgb(96,96,96);stroke-width:0.2px;stroke-dasharray:0.2,0.2;"/>
    </g>
    <g transform="matrix(-1.46901e-15,-9.13488,13.5503,-2.17908e-15,-3050.72,2387.89)">
        <path d="M251.87,229.5C251.87,234.642 251.87,239.783 251.87,244.925" style="fill:none;stroke:rgb(96,96,96);stroke-width:0.17px;stroke-dasharray:0.17,0.17;"/>
    </g>
    <g transform="matrix(9.59267,0,0,3.82085,-2303.88,-635.346)">
        <path d="M251.87,229.5L251.87,244.925" style="fill:none;stroke:rgb(96,96,96);stroke-width:0.27px;stroke-dasharray:0.27,0.27;"/>
    </g>
    <g transform="matrix(9.59267,0,0,6.50787,-2262.88,-1293.46)">
        <path d="M251.87,229.5L251.87,244.925" style="fill:none;stroke:rgb(96,96,96);stroke-width:0.24px;stroke-dasharray:0.24,0.24;"/>
    </g>
    <g transform="matrix(9.59267,0,0,9.17463,-2220.88,-1946.62)">
        <path d="M251.87,229.5L251.87,244.925" style="fill:none;stroke:rgb(96,96,96);stroke-width:0.21px;stroke-dasharray:0.21,0.21;"/>
    </g>
    <g transform="matrix(9.59267,0,0,11.6829,-2181.88,-2560.95)">
        <path d="M251.87,229.5L251.87,244.925" style="fill:none;stroke:rgb(96,96,96);stroke-width:0.19px;stroke-dasharray:0.19,0.19;"/>
    </g>
    <g transform="matrix(9.59267,0,0,13.8063,-2146.88,-3081.03)">
        <path d="M251.87,229.5L251.87,244.925" style="fill:none;stroke:rgb(96,96,96);stroke-width:0.17px;stroke-dasharray:0.17,0.17;"/>
    </g>
    <g transform="matrix(1,0,0,1,-4.90431,-20.0797)">
        <path d="M62.078,68.166L62.078,320.826" style="stroke:rgb(84,103,123);stroke-width:6px;"/>
    </g>
    <g transform="matrix(1.00246,0,0,1,-9.8143,-40.593)">
        <path d="M63.922,338.529L326.513,338.529" style="fill:none;stroke:rgb(84,103,123);stroke-width:6px;"/>
    </g>
    <g transform="matrix(1.13774,0,0,1.13774,-29.4697,-87.239)">
        <path d="M103.708,310.992L266.064,148.636" style="fill:none;stroke:rgb(228,85,84);stroke-width:3.52px;"/>
    </g>
    <g transform="matrix(0.899023,0,0,1,2.59816,35.567)">
        <text x="0px" y="0px" style="font-family:'Seravek-Light', 'Seravek', sans-serif;font-weight:300;font-size:27.976px;fill:rgb(96,96,96);">Price</text>
    </g>
    <g transform="matrix(0.899023,0,0,1,313.683,331.846)">
        <g transform="matrix(1,0,0,1,4.44927,0)">
            <text x="0px" y="0px" style="font-family:'Seravek-Light', 'Seravek', sans-serif;font-weight:300;font-size:24px;fill:rgb(96,96,96);">Quan</text>
        </g>
        <g transform="matrix(1,0,0,1,60.4173,0)">
            <text x="0px" y="0px" style="font-family:'Seravek-Light', 'Seravek', sans-serif;font-weight:300;font-size:24px;fill:rgb(96,96,96);">tity</text>
        </g>
    </g>
    <g transform="matrix(0.899023,0,0,1,262.314,119.274)">
        <g transform="matrix(1,0,0,1,29.0854,-21.6465)">
            <text x="0px" y="0px" style="font-family:'Seravek', sans-serif;font-size:24px;fill:rgb(228,85,84);">S</text>
        </g>
        <g transform="matrix(1,0,0,1,29.0854,-21.6465)">
            <path d="M15.24,-6.528L15.24,-14.112L12.816,-13.32L12.384,-14.784L15.816,-15.984L17.112,-15.984L17.112,-6.528L15.24,-6.528Z" style="fill:rgb(228,85,84);"/>
        </g>
    </g>
    <g transform="matrix(0.899023,0,0,1,12.3204,91.3811)">
        <text x="0px" y="0px" style="font-family:'Seravek-Light', 'Seravek', sans-serif;font-weight:300;font-size:18px;fill:rgb(96,96,96);">1500</text>
    </g>
    <g transform="matrix(0.899023,0,0,1,12.1681,130.147)">
        <text x="0px" y="0px" style="font-family:'Seravek-Light', 'Seravek', sans-serif;font-weight:300;font-size:18px;fill:rgb(96,96,96);">1200</text>
    </g>
    <g transform="matrix(0.899023,0,0,1,12.0763,168.371)">
        <text x="0px" y="0px" style="font-family:'Seravek-Light', 'Seravek', sans-serif;font-weight:300;font-size:18px;fill:rgb(96,96,96);">1000</text>
    </g>
    <g transform="matrix(0.899023,0,0,1,17.8986,208.588)">
        <text x="0px" y="0px" style="font-family:'Seravek-Light', 'Seravek', sans-serif;font-weight:300;font-size:18px;fill:rgb(96,96,96);">750</text>
    </g>
    <g transform="matrix(0.899023,0,0,1,17.8986,248.588)">
        <text x="0px" y="0px" style="font-family:'Seravek-Light', 'Seravek', sans-serif;font-weight:300;font-size:18px;fill:rgb(96,96,96);">500</text>
    </g>
    <g transform="matrix(0.899023,0,0,1,98.8986,319.588)">
        <text x="0px" y="0px" style="font-family:'Seravek-Light', 'Seravek', sans-serif;font-weight:300;font-size:18px;fill:rgb(96,96,96);">400</text>
    </g>
    <g transform="matrix(0.899023,0,0,1,139.899,319.588)">
        <text x="0px" y="0px" style="font-family:'Seravek-Light', 'Seravek', sans-serif;font-weight:300;font-size:18px;fill:rgb(96,96,96);">500</text>
    </g>
    <g transform="matrix(0.899023,0,0,1,181.899,319.588)">
        <text x="0px" y="0px" style="font-family:'Seravek-Light', 'Seravek', sans-serif;font-weight:300;font-size:18px;fill:rgb(96,96,96);">600</text>
    </g>
    <g transform="matrix(0.899023,0,0,1,222.899,319.588)">
        <text x="0px" y="0px" style="font-family:'Seravek-Light', 'Seravek', sans-serif;font-weight:300;font-size:18px;fill:rgb(96,96,96);">7<tspan x="7.506px 18.018px " y="0px 0px ">00</tspan></text>
    </g>
    <g transform="matrix(0.899023,0,0,1,258.899,319.588)">
        <text x="0px" y="0px" style="font-family:'Seravek-Light', 'Seravek', sans-serif;font-weight:300;font-size:18px;fill:rgb(96,96,96);">800</text>
    </g>
</svg>
