<?xml version="1.0" standalone="no"?>
<!DOCTYPE svg PUBLIC "-//W3C//DTD SVG 1.1//EN" "http://www.w3.org/Graphics/SVG/1.1/DTD/svg11.dtd">
<svg width="100%" height="100%" viewBox="0 0 400 350" version="1.1" xmlns="http://www.w3.org/2000/svg" xmlns:xlink="http://www.w3.org/1999/xlink" xml:space="preserve" style="fill-rule:evenodd;clip-rule:evenodd;stroke-linejoin:round;stroke-miterlimit:1.41421;">
    <g transform="matrix(1,0,0,1.0007,-8.90431,-20.1274)">
        <path d="M62.078,68.166L62.078,320.826" style="fill:black;stroke-width:6.05px;stroke:rgb(84,103,123);"/>
    </g>
    <g transform="matrix(1.00288,0,0,1,-13.9513,-40.593)">
        <path d="M63.922,338.529L326.513,338.529" style="fill:none;stroke-width:6.01px;stroke:rgb(84,103,123);"/>
    </g>
    <g transform="matrix(1,0,0,1,-48.7471,-85.4126)">
        <path d="M134.855,279.845L266.064,148.636" style="fill:none;stroke-width:4px;stroke:rgb(228,85,84);"/>
    </g>
    <g transform="matrix(1,0,0,1,-1.26494,-39.0969)">
        <path d="M134.855,279.845L266.064,148.636" style="fill:none;stroke-width:4px;stroke:rgb(228,85,84);"/>
    </g>
    <g transform="matrix(1,0,0,1,46.8281,2.05541)">
        <path d="M134.855,279.845L266.064,148.636" style="fill:none;stroke-width:4px;stroke:rgb(228,85,84);"/>
    </g>
    <g transform="matrix(0.899023,0,0,1,2.59816,35.567)">
        <text x="0px" y="0px" style="font-family:'Seravek-Light';font-size:27.976px;fill:rgb(96,96,96);">Price</text>
    </g>
    <g transform="matrix(0.899023,0,0,1,313.683,331.846)">
        <text x="0px" y="0px" style="font-family:'Seravek-Light';font-size:24px;fill:rgb(96,96,96);">Quan</text>
        <g transform="matrix(1,0,0,1,55.968,0)">
            <text x="0px" y="0px" style="font-family:'Seravek-Light';font-size:24px;fill:rgb(96,96,96);">tity</text>
        </g>
    </g>
    <g transform="matrix(0.899023,0,0,1,262.314,119.274)">
        <g transform="matrix(1,0,0,1,9.42979,-8.34655)">
            <text x="0px" y="0px" style="font-family:'Seravek';font-size:24px;fill:rgb(228,85,84);">S</text>
        </g>
        <g transform="matrix(1,0,0,1,9.42979,-8.34655)">
            <path d="M15.24,-6.528L15.24,-14.112L12.816,-13.32L12.384,-14.784L15.816,-15.984L17.112,-15.984L17.112,-6.528L15.24,-6.528Z" style="fill:rgb(228,85,84);"/>
        </g>
        <g transform="matrix(1,0,0,1,61.0124,33)">
            <text x="0px" y="0px" style="font-family:'Seravek';font-size:24px;fill:rgb(228,85,84);">S</text>
            <path d="M19.416,-9.072C19.416,-8.24 19.072,-7.568 18.384,-7.056C17.696,-6.544 16.792,-6.288 15.672,-6.288C15.208,-6.288 14.728,-6.344 14.232,-6.456C13.736,-6.568 13.32,-6.712 12.984,-6.888L13.296,-8.256C13.648,-8.096 14.004,-7.972 14.364,-7.884C14.724,-7.796 15.104,-7.752 15.504,-7.752C16.144,-7.752 16.644,-7.868 17.004,-8.1C17.364,-8.332 17.544,-8.672 17.544,-9.12C17.544,-9.632 17.32,-10.004 16.872,-10.236C16.424,-10.468 15.864,-10.584 15.192,-10.584L14.04,-10.584L14.04,-12.072L15.072,-12.072C15.792,-12.072 16.348,-12.212 16.74,-12.492C17.132,-12.772 17.328,-13.128 17.328,-13.56C17.328,-13.976 17.172,-14.28 16.86,-14.472C16.548,-14.664 16.144,-14.76 15.648,-14.76C15.28,-14.76 14.928,-14.72 14.592,-14.64C14.256,-14.56 13.92,-14.44 13.584,-14.28L13.248,-15.648C13.664,-15.856 14.096,-16.004 14.544,-16.092C14.992,-16.18 15.472,-16.224 15.984,-16.224C16.432,-16.224 16.848,-16.168 17.232,-16.056C17.616,-15.944 17.952,-15.788 18.24,-15.588C18.528,-15.388 18.756,-15.14 18.924,-14.844C19.092,-14.548 19.176,-14.208 19.176,-13.824C19.176,-12.704 18.544,-11.904 17.28,-11.424C17.904,-11.264 18.416,-10.976 18.816,-10.56C19.216,-10.144 19.416,-9.648 19.416,-9.072Z" style="fill:rgb(228,85,84);"/>
        </g>
        <g transform="matrix(1,0,0,1,-34.4181,-53.5833)">
            <text x="0px" y="0px" style="font-family:'Seravek';font-size:24px;fill:rgb(228,85,84);">S</text>
            <path d="M13.344,-15.528C13.76,-15.752 14.196,-15.924 14.652,-16.044C15.108,-16.164 15.6,-16.224 16.128,-16.224C17.184,-16.224 18.008,-15.956 18.6,-15.42C19.192,-14.884 19.488,-14.184 19.488,-13.32C19.488,-12.872 19.412,-12.456 19.26,-12.072C19.108,-11.688 18.908,-11.328 18.66,-10.992C18.412,-10.656 18.12,-10.336 17.784,-10.032C17.448,-9.728 17.096,-9.432 16.728,-9.144C16.456,-8.92 16.2,-8.72 15.96,-8.544C15.72,-8.368 15.488,-8.192 15.264,-8.016L19.8,-8.016L19.8,-6.528L13.056,-6.528L12.696,-7.728C13.208,-8.144 13.692,-8.54 14.148,-8.916C14.604,-9.292 15.072,-9.688 15.552,-10.104C16.096,-10.568 16.576,-11.044 16.992,-11.532C17.408,-12.02 17.616,-12.576 17.616,-13.2C17.616,-13.696 17.468,-14.076 17.172,-14.34C16.876,-14.604 16.448,-14.736 15.888,-14.736C15.504,-14.736 15.144,-14.68 14.808,-14.568C14.472,-14.456 14.128,-14.312 13.776,-14.136L13.344,-15.528Z" style="fill:rgb(228,85,84);"/>
        </g>
    </g>
</svg>
