<?xml version="1.0" standalone="no"?>
<!DOCTYPE svg PUBLIC "-//W3C//DTD SVG 1.1//EN" "http://www.w3.org/Graphics/SVG/1.1/DTD/svg11.dtd">
<svg width="100%" height="100%" viewBox="0 0 500 350" version="1.1" xmlns="http://www.w3.org/2000/svg" xmlns:xlink="http://www.w3.org/1999/xlink" xml:space="preserve" style="fill-rule:evenodd;clip-rule:evenodd;stroke-linejoin:round;stroke-miterlimit:1.41421;">
    <g transform="matrix(0.899023,0,0,1,357.563,328.979)">
        <g transform="matrix(1,0,0,1,-33.3696,0)">
            <text x="0px" y="0px" style="font-family:'Seravek-Light';font-size:24px;fill:rgb(96,96,96);">Quan</text>
        </g>
        <g transform="matrix(1,0,0,1,21.4861,0)">
            <text x="0px" y="0px" style="font-family:'Seravek-Light';font-size:24px;fill:rgb(96,96,96);">tity</text>
        </g>
        <g transform="matrix(9.40633,0,0,8.4565,-2563.66,-2104.54)">
            <path d="M251.87,229.5L251.87,244.925" style="fill:none;stroke-width:0.24px;stroke-dasharray:0.24,0.24;stroke:rgb(96,96,96);"/>
        </g>
        <g transform="matrix(4.51958,0,0,4.06321,-1420.71,-1025.51)">
            <path d="M251.87,229.5L251.87,244.925" style="fill:none;stroke-width:0.49px;stroke-dasharray:0.49,0.49;stroke:rgb(96,96,96);"/>
        </g>
        <g transform="matrix(4.49536,0,0,4.04143,-1238.86,-1020.18)">
            <path d="M251.87,229.5L251.87,244.925" style="fill:none;stroke-width:0.49px;stroke-dasharray:0.49,0.49;stroke:rgb(96,96,96);"/>
        </g>
        <g transform="matrix(7.2701,0,0,6.53599,-1982.23,-1631.16)">
            <path d="M251.87,229.5L251.87,244.925" style="fill:none;stroke-width:0.31px;stroke-dasharray:0.31,0.31;stroke:rgb(96,96,96);"/>
        </g>
        <g transform="matrix(7.18545,0,0,6.45989,-2049.9,-1612.52)">
            <path d="M251.87,229.5L251.87,244.925" style="fill:none;stroke-width:0.31px;stroke-dasharray:0.31,0.31;stroke:rgb(96,96,96);"/>
        </g>
    </g>
    <g transform="matrix(0.899023,0,0,1,312.314,119.274)">
        <g transform="matrix(-1.41728e-15,-7.92326,8.81319,-1.27417e-15,-2302.25,2035.09)">
            <path d="M251.87,229.5C251.87,234.642 251.87,239.783 251.87,244.925" style="fill:none;stroke-width:0.25px;stroke-dasharray:0.25,0.25;stroke:rgb(96,96,96);"/>
        </g>
        <g transform="matrix(1,0,0,1,-56.4175,-19.7288)">
            <g transform="matrix(1,0,0,1,18.338,-30.2949)">
                <text x="0px" y="0px" style="font-family:'Seravek';font-size:24px;fill:rgb(228,85,84);">S</text>
                <text x="17.184px" y="-7.992px" style="font-family:'Seravek';font-size:13.992px;fill:rgb(228,85,84);">(Domestic<tspan x="78.997px " y="-7.992px ">)</tspan></text>
            </g>
            <g transform="matrix(1,0,0,1,62.6447,136.199)">
                <text x="0px" y="0px" style="font-family:'Seravek';font-size:24px;fill:rgb(107,164,96);">W<tspan x="21.936px 35.04px 43.704px 50.208px " y="0px 0px 0px 0px ">orld</tspan> Suppl<tspan x="126.096px " y="0px ">y</tspan></text>
            </g>
            <g transform="matrix(1,0,0,1,43.7353,85.199)">
                <text x="0px" y="0px" style="font-family:'Seravek';font-size:24px;fill:rgb(129,70,177);">W<tspan x="21.936px 35.04px 43.704px 50.208px " y="0px 0px 0px 0px ">orld</tspan> Suppl<tspan x="126.096px " y="0px ">y</tspan> + <tspan x="161.04px 171.984px 184.008px " y="0px 0px 0px ">Tar</tspan>iﬀ</text>
            </g>
        </g>
        <g transform="matrix(1,0,0,1,-21.7151,150.544)">
            <text x="0px" y="0px" style="font-family:'Seravek';font-size:24px;fill:rgb(228,85,84);">D</text>
            <text x="21.552px" y="-7.992px" style="font-family:'Seravek';font-size:13.992px;fill:rgb(228,85,84);">(Domestic<tspan x="83.365px " y="-7.992px ">)</tspan></text>
        </g>
        <g transform="matrix(-2.2844e-16,-1.2771,1.42055,-2.05373e-16,-473.514,273.966)">
            <path d="M103.708,310.992L250.763,163.937" style="fill:none;stroke-width:3.13px;stroke:rgb(228,85,84);"/>
        </g>
        <g transform="matrix(1.42932,-2.85325e-16,3.09379e-16,1.25263,-402.773,-252.15)">
            <path d="M103.708,310.992L250.763,163.937" style="fill:none;stroke-width:3.15px;stroke:rgb(228,85,84);"/>
        </g>
        <g transform="matrix(1,0,0,1,-153.09,211.572)">
            <text x="0px" y="0px" style="font-family:'Seravek-Light';font-size:24px;fill:rgb(96,96,96);">Q</text>
        </g>
        <g transform="matrix(1,0,0,1,-115.272,211.572)">
            <text x="0px" y="0px" style="font-family:'Seravek-Light';font-size:24px;fill:rgb(96,96,96);">Q3</text>
        </g>
        <g transform="matrix(1,0,0,1,-248.75,211.572)">
            <text x="0px" y="0px" style="font-family:'Seravek-Light';font-size:24px;fill:rgb(96,96,96);">Q1</text>
        </g>
        <g transform="matrix(1,0,0,1,-205.369,211.572)">
            <text x="0px" y="0px" style="font-family:'Seravek-Light';font-size:24px;fill:rgb(96,96,96);">Q4</text>
        </g>
        <g transform="matrix(1,0,0,1,-69.6661,211.572)">
            <text x="0px" y="0px" style="font-family:'Seravek-Light';font-size:24px;fill:rgb(96,96,96);">Q2</text>
        </g>
        <g transform="matrix(1,0,0,1,-309.926,48.572)">
            <text x="0px" y="0px" style="font-family:'Seravek-Light';font-size:24px;fill:rgb(96,96,96);">P</text>
        </g>
        <g transform="matrix(1,0,0,1,-309.926,123.572)">
            <text x="0px" y="0px" style="font-family:'Seravek-Light';font-size:24px;fill:rgb(96,96,96);">P1</text>
        </g>
        <g transform="matrix(1,0,0,1,-309.926,85.572)">
            <text x="0px" y="0px" style="font-family:'Seravek-Light';font-size:24px;fill:rgb(96,96,96);">P2</text>
        </g>
        <g transform="matrix(-0.952744,-0.856539,0.952746,-0.85654,-199.344,473.024)">
            <path d="M103.708,310.992L250.763,163.937" style="fill:none;stroke-width:3.3px;stroke:rgb(107,164,96);"/>
        </g>
        <g transform="matrix(-0.952744,-0.856539,0.952746,-0.85654,-199.344,435.024)">
            <path d="M103.708,310.992L250.763,163.937" style="fill:none;stroke-width:3.3px;stroke:rgb(129,70,177);"/>
        </g>
    </g>
    <g transform="matrix(1,0,0,1.0007,-2.90431,-20.1274)">
        <path d="M62.078,68.166L62.078,320.826" style="fill:black;stroke-width:6.05px;stroke:rgb(84,103,123);"/>
    </g>
    <g transform="matrix(1.00288,0,0,1,-7.9513,-40.593)">
        <path d="M63.922,338.529L326.513,338.529" style="fill:none;stroke-width:6.01px;stroke:rgb(84,103,123);"/>
    </g>
    <g transform="matrix(0.899023,0,0,1,1.59816,35.567)">
        <text x="0px" y="0px" style="font-family:'Seravek-Light';font-size:27.976px;fill:rgb(96,96,96);">Price</text>
    </g>
</svg>
