<?xml version="1.0" standalone="no"?>
<!DOCTYPE svg PUBLIC "-//W3C//DTD SVG 1.1//EN" "http://www.w3.org/Graphics/SVG/1.1/DTD/svg11.dtd">
<svg width="100%" height="100%" viewBox="0 0 450 350" version="1.1" xmlns="http://www.w3.org/2000/svg" xmlns:xlink="http://www.w3.org/1999/xlink" xml:space="preserve" style="fill-rule:evenodd;clip-rule:evenodd;stroke-linejoin:round;stroke-miterlimit:1.41421;">
    <g transform="matrix(0.899023,0,0,1,332.563,328.979)">
        <g transform="matrix(1,0,0,1,-2.22464,0)">
            <text x="0px" y="0px" style="font-family:'Seravek-Light';font-size:24px;fill:rgb(96,96,96);">Employment</text>
        </g>
        <g transform="matrix(9.40633,0,0,8.4565,-2530.29,-2104.54)">
            <path d="M251.87,229.5L251.87,244.925" style="fill:none;stroke-width:0.24px;stroke-dasharray:0.24,0.24;stroke:rgb(96,96,96);"/>
        </g>
        <g transform="matrix(12.7488,0,0,11.4615,-3426.67,-2839.53)">
            <path d="M251.87,229.5L251.87,244.925" style="fill:none;stroke-width:0.17px;stroke-dasharray:0.17,0.17;stroke:rgb(96,96,96);"/>
        </g>
        <g transform="matrix(12.7488,0,0,11.4615,-3319.88,-2840.53)">
            <path d="M251.87,229.5L251.87,244.925" style="fill:none;stroke-width:0.17px;stroke-dasharray:0.17,0.17;stroke:rgb(96,96,96);"/>
        </g>
    </g>
    <g transform="matrix(0.899023,0,0,1,287.314,119.274)">
        <g transform="matrix(-1.41728e-15,-7.92326,8.81319,-1.27417e-15,-2267.77,2043.09)">
            <path d="M251.87,229.5C251.87,234.642 251.87,239.783 251.87,244.925" style="fill:none;stroke-width:0.25px;stroke-dasharray:0.25,0.25;stroke:rgb(96,96,96);"/>
        </g>
        <g transform="matrix(1,0,0,1,-19.643,-31.4987)">
            <text x="0px" y="0px" style="font-family:'Seravek';font-size:20px;fill:rgb(228,85,84);">Labour Suppl<tspan x="111.72px " y="0px ">y</tspan></text>
        </g>
        <g transform="matrix(1,0,0,1,-21.0746,118.466)">
            <text x="0px" y="0px" style="font-family:'Seravek';font-size:20px;fill:rgb(228,85,84);">Labour Demand</text>
        </g>
        <g transform="matrix(-1.78874e-16,-1,1.11232,-1.60812e-16,-374.928,224.682)">
            <path d="M103.708,310.992L250.763,163.937" style="fill:none;stroke-width:4px;stroke:rgb(228,85,84);"/>
        </g>
        <g transform="matrix(1.11232,-2.22044e-16,2.46984e-16,1,-307.93,-189.994)">
            <path d="M103.708,310.992L250.763,163.937" style="fill:none;stroke-width:4px;stroke:rgb(228,85,84);"/>
        </g>
        <g transform="matrix(0.202208,-4.03652e-17,4.4899e-17,0.181789,-79.6847,-55.9253)">
            <path d="M103.708,310.992L250.763,163.937" style="fill:none;stroke-width:22.55px;stroke:rgb(107,164,96);"/>
        </g>
        <g transform="matrix(1,0,0,1,-120.833,211.572)">
            <text x="0px" y="0px" style="font-family:'Seravek-Light';font-size:24px;fill:rgb(96,96,96);">E1</text>
        </g>
        <g transform="matrix(1,0,0,1,-175.336,211.572)">
            <text x="0px" y="0px" style="font-family:'Seravek-Light';font-size:24px;fill:rgb(96,96,96);">E2</text>
        </g>
        <g transform="matrix(1,0,0,1,-69.6658,211.572)">
            <text x="0px" y="0px" style="font-family:'Seravek-Light';font-size:24px;fill:rgb(96,96,96);">E3</text>
        </g>
        <g transform="matrix(1,0,0,1,-286.568,52.572)">
            <text x="0px" y="0px" style="font-family:'Seravek-Light';font-size:24px;fill:rgb(96,96,96);">W1</text>
        </g>
        <g transform="matrix(1,0,0,1,-286.568,6.572)">
            <text x="0px" y="0px" style="font-family:'Seravek-Light';font-size:24px;fill:rgb(96,96,96);">W2</text>
        </g>
        <g transform="matrix(-0.648675,-0.583174,0.648677,-0.583175,-191.607,241.906)">
            <path d="M103.708,310.992L250.763,163.937" style="fill:none;stroke-width:4.85px;stroke:rgb(107,164,96);"/>
        </g>
    </g>
    <g transform="matrix(1,0,0,1.0007,3.09569,-20.1274)">
        <path d="M62.078,68.166L62.078,320.826" style="fill:black;stroke-width:6.05px;stroke:rgb(84,103,123);"/>
    </g>
    <g transform="matrix(1.00288,0,0,1,-1.9513,-40.593)">
        <path d="M63.922,338.529L326.513,338.529" style="fill:none;stroke-width:6.01px;stroke:rgb(84,103,123);"/>
    </g>
    <g transform="matrix(0.899023,0,0,1,0.59816,35.567)">
        <text x="0px" y="0px" style="font-family:'Seravek-Light';font-size:27.976px;fill:rgb(96,96,96);">W<tspan x="25.122px 38.915px " y="0px 0px ">ag</tspan>e</text>
    </g>
</svg>
